<svg width="317" height="85" viewBox="0 0 317 85" fill="none" xmlns="http://www.w3.org/2000/svg">
<g clip-path="url(#clip0)">
<path d="M66.0269 84.3519C65.6364 84.3519 65.3169 84.0319 65.3169 83.6408L65.3524 79.9788C65.3524 79.5877 65.6719 79.2677 66.0624 79.2677C66.4528 79.2677 66.7723 79.5877 66.7546 79.9788L66.7191 83.6408C66.7368 84.0319 66.4173 84.3519 66.0269 84.3519Z" fill="#4E266D"/>
<path d="M66.0269 84.3519C65.6364 84.3519 65.3169 84.0319 65.3169 83.6408L65.3524 79.9788C65.3524 79.5877 65.6719 79.2677 66.0624 79.2677C66.4528 79.2677 66.7723 79.5877 66.7546 79.9788L66.7191 83.6408C66.7368 84.0319 66.4173 84.3519 66.0269 84.3519Z" fill="#4E266D"/>
<path d="M66.0269 84.3519C65.6364 84.3519 65.3169 84.0319 65.3169 83.6408L65.3524 79.9788C65.3524 79.5877 65.6719 79.2677 66.0624 79.2677C66.4528 79.2677 66.7723 79.5877 66.7546 79.9788L66.7191 83.6408C66.7368 84.0319 66.4173 84.3519 66.0269 84.3519Z" fill="#4E266D"/>
<path d="M66.0269 84.3519C65.6364 84.3519 65.3169 84.0319 65.3169 83.6408L65.3524 79.9788C65.3524 79.5877 65.6719 79.2677 66.0624 79.2677C66.4528 79.2677 66.7723 79.5877 66.7546 79.9788L66.7191 83.6408C66.7368 84.0319 66.4173 84.3519 66.0269 84.3519Z" fill="#4E266D"/>
<path d="M270.71 31.6963V27.0921L268.989 30.8252H268.687L267.001 27.0921L266.983 31.6785H266.61L266.628 26.2921H266.983L268.847 30.3986L270.728 26.3099H271.083L271.065 31.6963H270.71Z" fill="#4E266D"/>
<path d="M266.681 26.3455H266.965L268.758 30.3275L268.847 30.5053L268.935 30.3275L270.764 26.3455H271.048L271.03 31.643H270.764L270.781 27.2877V26.861L270.604 27.2521L268.989 30.7542H268.74L267.143 27.2521L266.965 26.861V27.2877L266.947 31.6253H266.681V26.3455ZM266.592 26.2566L266.575 31.7319H267.036L267.054 27.3054L268.669 30.8608H269.024L270.675 27.3054L270.657 31.7497H271.119L271.136 26.2744H270.693L268.829 30.3098L267.018 26.2744L266.592 26.2566Z" fill="#4E266D"/>
<path d="M272.006 29.9009V28.0877C272.006 26.9677 272.751 26.1855 273.852 26.1855C274.917 26.1855 275.68 26.9855 275.68 28.1055V29.9187C275.68 31.0387 274.917 31.8209 273.834 31.8209C272.734 31.8031 272.006 31.0387 272.006 29.9009ZM275.201 29.9365V28.0877C275.201 27.1988 274.633 26.63 273.834 26.63C273.071 26.63 272.467 27.1633 272.467 28.0699V29.9187C272.467 30.8076 273.035 31.3587 273.834 31.3764C274.597 31.3764 275.201 30.8431 275.201 29.9365Z" fill="#4E266D"/>
<path d="M273.834 31.8564C272.716 31.8564 271.953 31.0564 271.953 29.9009V28.0877C271.953 26.9322 272.734 26.1322 273.834 26.1322C274.935 26.1322 275.715 26.9499 275.715 28.1055V29.9187C275.715 31.0564 274.935 31.8564 273.834 31.8564ZM272.059 29.9009C272.059 31.0209 272.769 31.7675 273.834 31.7675H273.852C274.899 31.7675 275.627 31.0031 275.627 29.9187V28.1055C275.627 27.0033 274.899 26.2389 273.852 26.2389C272.805 26.2389 272.077 27.0033 272.059 28.1055V29.9009ZM273.834 31.412C272.982 31.412 272.414 30.8076 272.414 29.9187V28.0699C272.414 27.181 272.982 26.5766 273.834 26.5766C274.686 26.5766 275.254 27.181 275.254 28.0877V29.9365C275.254 30.3809 275.112 30.772 274.828 31.0387C274.58 31.2875 274.225 31.412 273.834 31.412ZM273.834 26.6833C273.035 26.6833 272.503 27.2522 272.503 28.0877V29.9365C272.503 30.7898 273.018 31.3409 273.834 31.3409C274.207 31.3409 274.526 31.2164 274.775 30.9853C275.023 30.7364 275.165 30.3809 275.165 29.9543V28.1055C275.165 27.2522 274.633 26.6833 273.834 26.6833Z" fill="#4E266D"/>
<path d="M276.479 27.6787C276.479 26.701 277.224 26.2032 278.236 26.2032C279.194 26.2032 279.975 26.8077 279.975 28.0343H279.514C279.514 27.0921 278.928 26.6477 278.218 26.6477C277.508 26.6477 276.94 26.9677 276.94 27.6787C276.94 29.3498 280.029 28.2654 280.029 30.3097C280.029 31.323 279.23 31.8386 278.218 31.8386C277.206 31.8386 276.408 31.1808 276.408 29.9009H276.851C276.851 30.9142 277.455 31.3941 278.218 31.3941C278.964 31.3941 279.567 31.0386 279.567 30.3097C279.567 28.7276 276.479 29.7764 276.479 27.6787Z" fill="#4E266D"/>
<path d="M278.218 31.892C277.668 31.892 277.206 31.7142 276.887 31.3765C276.55 31.0209 276.354 30.5232 276.372 29.9187V29.8654H276.905V29.9187C276.905 30.3809 277.029 30.7543 277.277 31.0209C277.508 31.252 277.828 31.3765 278.218 31.3765H278.236C278.68 31.3765 279.035 31.252 279.265 31.0209C279.443 30.8431 279.532 30.612 279.532 30.3276C279.532 29.6165 278.91 29.4565 278.183 29.2788C277.366 29.0654 276.443 28.8343 276.461 27.6788C276.461 27.1989 276.638 26.8078 276.976 26.5233C277.295 26.2745 277.739 26.15 278.254 26.15C278.768 26.15 279.194 26.31 279.514 26.6122C279.851 26.95 280.028 27.43 280.028 28.0344V28.0877H279.478V28.0344C279.478 27.6077 279.354 27.2522 279.123 27.0211C278.91 26.8078 278.591 26.6833 278.236 26.6833C277.863 26.6833 277.561 26.7722 277.348 26.9144C277.118 27.0922 276.993 27.3411 276.993 27.6611C276.993 28.4255 277.668 28.5855 278.378 28.7632C279.177 28.9588 280.064 29.1899 280.064 30.2921C280.064 31.2876 279.354 31.892 278.218 31.892ZM276.443 29.9543C276.443 30.5232 276.621 30.9854 276.94 31.3054C277.26 31.6253 277.686 31.7853 278.2 31.7853C279.283 31.7853 279.958 31.2165 279.958 30.2921C279.958 29.261 279.141 29.0477 278.342 28.8521C277.615 28.6744 276.887 28.4788 276.887 27.6611C276.887 27.3055 277.029 27.0211 277.277 26.8433C277.508 26.6656 277.828 26.5767 278.218 26.5767C278.609 26.5767 278.928 26.7011 279.177 26.95C279.425 27.1989 279.549 27.5544 279.567 27.9811H279.94C279.94 27.43 279.762 26.9855 279.443 26.6833C279.141 26.3989 278.733 26.2389 278.254 26.2389C277.757 26.2389 277.331 26.3633 277.029 26.5944C276.709 26.8433 276.55 27.2166 276.55 27.6611C276.55 28.7455 277.384 28.9588 278.2 29.1721C278.928 29.3499 279.62 29.5277 279.62 30.3098C279.62 30.612 279.514 30.8787 279.319 31.0743C279.07 31.3231 278.68 31.4653 278.218 31.4476C277.81 31.4476 277.455 31.3231 277.206 31.0565C276.94 30.7898 276.816 30.4165 276.798 29.9365L276.443 29.9543Z" fill="#4E266D"/>
<path d="M281.874 31.732L281.892 26.7011H280.383V26.3456H283.774V26.7011H282.265L282.247 31.732H281.874Z" fill="#4E266D"/>
<path d="M280.419 26.381L283.72 26.3988V26.6654H282.3H282.212V26.7543L282.194 31.6963H281.928L281.945 26.7543V26.6654H281.857H280.437L280.419 26.381ZM280.33 26.2921V26.7365H281.839L281.821 31.7674H282.283L282.3 26.7365H283.827V26.3099L280.33 26.2921Z" fill="#4E266D"/>
<path d="M287.377 31.7497L286.063 30.0076H284.927V31.7497H284.555L284.572 26.3633H286.099C286.649 26.3633 287.11 26.5233 287.43 26.8433C287.732 27.1455 287.891 27.5899 287.891 28.1054V28.301C287.891 29.2076 287.377 29.7942 286.507 29.9187L286.436 29.9365L287.838 31.7497H287.377ZM284.91 29.652H286.045C286.968 29.652 287.501 29.1543 287.519 28.3188V28.1054C287.519 27.2344 286.986 26.7188 286.063 26.7188H284.927L284.91 29.652Z" fill="#4E266D"/>
<path d="M284.608 26.3988H286.099C286.631 26.3988 287.093 26.5588 287.394 26.861C287.696 27.1632 287.838 27.5898 287.838 28.0876V28.3009C287.838 29.172 287.341 29.7409 286.489 29.8653L286.329 29.8831L286.418 30.0075L287.714 31.6785H287.394L286.099 29.972L286.063 29.9364H286.01H284.945H284.856V30.0253V31.6785H284.59L284.608 26.3988ZM286.063 29.7053C287.004 29.7053 287.554 29.1898 287.554 28.3187V28.1054C287.554 27.1987 287.004 26.6832 286.045 26.6832H284.963H284.874V26.7721L284.856 29.6164V29.7053H284.945H286.063ZM284.519 26.3099L284.501 31.7852H284.963V30.0431H286.028L287.341 31.7852H287.891L286.489 29.9542C287.341 29.8297 287.927 29.2609 287.927 28.3009V28.0876C287.927 26.9321 287.199 26.2921 286.099 26.2921L284.519 26.3099ZM286.063 29.6164H284.963L284.98 26.7721H286.063C286.88 26.7721 287.465 27.181 287.465 28.1054V28.3187C287.465 29.1898 286.862 29.6164 286.063 29.6164Z" fill="#4E266D"/>
<path d="M292.133 31.7675L291.672 30.3809L289.152 30.3631L288.655 31.7497H288.282L290.199 26.3633H290.66L292.524 31.7497L292.133 31.7675ZM289.24 30.0609H291.565L290.43 26.6833L289.24 30.0609Z" fill="#4E266D"/>
<path d="M290.625 26.4166L292.453 31.7142H292.169L291.725 30.3809L291.707 30.3098H291.636L289.187 30.292H289.116L289.098 30.3454L288.619 31.6786H288.335L290.234 26.3989H290.625V26.4166ZM291.636 30.1143L291.601 29.9898L290.518 26.8077L290.43 26.5589L290.341 26.8077L289.205 29.9898L289.169 30.1143H289.294H291.494H291.636ZM290.696 26.3278H290.181L288.229 31.8031H288.708L289.205 30.4165L291.654 30.4342L292.116 31.8209H292.595L290.696 26.3278ZM291.512 30.0254H289.311L290.447 26.8433L291.512 30.0254Z" fill="#4E266D"/>
<path d="M294.725 26.3456H296.447C297.529 26.3456 298.275 27.0211 298.275 28.3544V29.7765C298.275 31.1098 297.511 31.8031 296.447 31.8031H294.725V26.3456ZM297.813 29.7054V28.461C297.813 27.2878 297.228 26.8078 296.393 26.8078H295.169L295.151 31.3943H296.376C297.21 31.3943 297.813 30.8965 297.813 29.7054Z" fill="#4E266D"/>
<path d="M296.447 31.8741H294.672L294.689 26.3099H296.464C297.636 26.3099 298.346 27.0921 298.328 28.3721V29.7942C298.328 30.4698 298.133 31.0031 297.76 31.3764C297.423 31.6964 296.979 31.8741 296.447 31.8741ZM294.743 31.7675H296.429H296.447C296.961 31.7675 297.387 31.6075 297.689 31.3053C298.044 30.9675 298.221 30.4342 298.221 29.7942V28.3721C298.221 27.1455 297.565 26.3988 296.447 26.3988H294.76L294.743 31.7675ZM296.393 31.4297H295.115L295.133 26.7544H296.393C297.068 26.7544 297.866 27.0566 297.849 28.461V29.7054C297.849 30.8253 297.334 31.4297 296.393 31.4297ZM295.204 31.3408H296.376C297.263 31.3408 297.742 30.7542 297.742 29.7054V28.461C297.742 27.4121 297.281 26.861 296.376 26.861H295.204V31.3408Z" fill="#4E266D"/>
<path d="M299.198 31.7854L299.215 26.3989L302.144 26.4167V26.7722L299.57 26.7545V28.9055H301.416V29.2255H299.57L299.553 31.4476H302.126V31.8031L299.198 31.7854Z" fill="#4E266D"/>
<path d="M299.251 26.4522L302.091 26.4699V26.7366H299.606H299.517V26.8255L299.499 28.8698V28.9587H299.588H301.345V29.1898H299.588H299.499V29.2787V31.3942V31.4831H299.588H302.073V31.7497L299.233 31.7319L299.251 26.4522ZM299.162 26.3633L299.144 31.8386L302.179 31.8564V31.412H299.606V29.2965H301.452V28.8876H299.606L299.624 26.8433H302.197V26.3988L299.162 26.3633Z" fill="#4E266D"/>
<path d="M268.119 49.8468C267.036 49.8468 266.291 49.0469 266.291 47.9269V46.0959C266.291 44.9759 267.036 44.1937 268.119 44.1937C269.237 44.1937 269.947 45.0115 269.947 46.167H269.485C269.485 45.3137 268.988 44.6382 268.119 44.6382C267.356 44.6382 266.752 45.1715 266.734 46.0781V47.9447C266.734 48.7091 267.214 49.4024 268.101 49.4024C269.006 49.4024 269.468 48.6735 269.485 47.8558H269.947C269.947 49.0291 269.237 49.8468 268.119 49.8468Z" fill="#4E266D"/>
<path d="M268.137 49.8823C267.018 49.8823 266.255 49.0823 266.255 47.9268V46.0958C266.255 45.5269 266.45 45.0114 266.805 44.6736C267.143 44.3359 267.604 44.1581 268.119 44.1581H268.137C269.255 44.1581 270.018 44.9758 270.018 46.1847V46.238H269.468V46.1847C269.468 45.2958 268.935 44.7092 268.137 44.7092C267.356 44.7092 266.823 45.2603 266.805 46.0958V47.9624C266.805 48.6379 267.214 49.3667 268.137 49.3845C269.059 49.3845 269.468 48.6379 269.468 47.8912V47.8379H270.018V47.8912C270 49.0645 269.255 49.8823 268.137 49.8823ZM268.119 49.7934C269.166 49.7934 269.894 49.029 269.911 47.909H269.539C269.521 48.6912 269.077 49.4556 268.119 49.4556C267.143 49.4556 266.699 48.6734 266.699 47.9446V46.078C266.699 45.1891 267.267 44.5847 268.119 44.5847C268.953 44.5847 269.503 45.2069 269.539 46.1135H269.911C269.894 44.9936 269.184 44.2292 268.137 44.2292H268.119C267.622 44.2292 267.196 44.3892 266.859 44.7092C266.521 45.0469 266.344 45.5269 266.326 46.078V47.909C266.344 49.029 267.072 49.7934 268.119 49.7934Z" fill="#4E266D"/>
<path d="M270.799 49.7401L270.834 44.3536H271.189L271.172 49.7401H270.799Z" fill="#4E266D"/>
<path d="M270.87 44.3892H271.136L271.118 49.6867H270.852L270.87 44.3892ZM270.781 44.3003L270.763 49.7756H271.225L271.243 44.3003H270.781Z" fill="#4E266D"/>
<path d="M272.308 49.74L272.325 44.3536L275.272 44.3714V44.7269H272.698V46.878H274.544V47.1979H272.698V49.4201L275.272 49.4378V49.7934L272.308 49.74ZM274.686 43.6248L273.799 42.7181L272.893 43.607H272.609L273.603 42.5226H273.994L274.97 43.607H274.686V43.6248Z" fill="#4E266D"/>
<path d="M273.621 42.5759H273.976L274.881 43.5715H274.722L273.887 42.7182L273.816 42.6471L273.745 42.7182L272.893 43.5715H272.734L273.621 42.5759ZM272.361 44.3892H275.218V44.6559H272.734H272.645V44.7447V46.7891V46.878H272.734H274.491V47.1091H272.734H272.645V47.198V49.3134V49.4023H272.734H275.218V49.6512H272.361V44.3892ZM273.586 42.4871L272.503 43.6603H272.911L273.799 42.7893L274.668 43.6781H275.076L274.012 42.5048L273.586 42.4871ZM272.272 44.3003L272.254 49.7756H275.289V49.3312L272.716 49.3134V47.198H274.562V46.7891H272.716V44.7447H275.289V44.3003H272.272Z" fill="#4E266D"/>
<path d="M279.425 49.7578L276.567 45.0292L276.55 49.7578H276.177L276.195 44.3536H276.55L279.407 49.1179L279.425 44.407H279.798L279.78 49.7578H279.425Z" fill="#4E266D"/>
<path d="M276.248 44.4069H276.514L279.283 48.9934L279.46 49.2778V48.94L279.478 44.4424H279.744L279.727 49.7044H279.46L276.692 45.1357L276.514 44.8513V45.1891L276.496 49.7044H276.23L276.248 44.4069ZM276.159 44.318L276.141 49.7933H276.603L276.621 45.1891L279.407 49.8111H279.833L279.851 44.3713H279.389L279.372 48.9578L276.567 44.318H276.159Z" fill="#4E266D"/>
<path d="M282.531 49.8823C281.448 49.8823 280.703 49.1001 280.703 47.9624V46.1314C280.703 45.0114 281.448 44.2292 282.549 44.2292C283.667 44.2292 284.377 45.047 284.377 46.2025H283.915C283.915 45.3492 283.419 44.6737 282.549 44.6737C281.786 44.6737 281.182 45.207 281.182 46.1136V47.9624C281.182 48.7268 281.661 49.4201 282.549 49.4201C283.454 49.4201 283.933 48.7091 283.933 47.8735H284.395C284.377 49.0646 283.649 49.8823 282.531 49.8823Z" fill="#4E266D"/>
<path d="M282.549 49.9356C281.431 49.9356 280.667 49.1357 280.667 47.9801V46.1491C280.667 45.5803 280.845 45.1003 281.2 44.7447C281.537 44.3892 281.999 44.2114 282.549 44.2114H282.567C283.685 44.2114 284.448 45.0292 284.43 46.238V46.2913H283.88V46.238C283.88 45.3492 283.348 44.7625 282.549 44.7625C282.176 44.7625 281.857 44.887 281.608 45.1358C281.36 45.3847 281.218 45.7402 281.218 46.1669V48.0335C281.218 48.4424 281.36 48.8157 281.608 49.0823C281.839 49.3134 282.158 49.4379 282.531 49.4379C282.886 49.4379 283.206 49.3134 283.436 49.0823C283.703 48.8157 283.862 48.4068 283.862 47.9446V47.8913H284.413V47.9446C284.413 49.1179 283.667 49.9356 282.549 49.9356ZM282.549 44.2825C282.034 44.2825 281.59 44.4603 281.271 44.7981C280.951 45.1358 280.774 45.598 280.774 46.1313V47.9624C280.774 49.0645 281.502 49.829 282.549 49.829C283.596 49.829 284.306 49.0645 284.342 47.9446H283.969C283.951 48.4246 283.791 48.8334 283.525 49.1001C283.277 49.349 282.939 49.4734 282.549 49.4734C282.158 49.4734 281.803 49.3312 281.555 49.0823C281.289 48.7979 281.129 48.4068 281.129 47.9624V46.0958C281.129 45.6514 281.271 45.278 281.537 44.9936C281.786 44.7447 282.141 44.6025 282.531 44.6025C283.365 44.6025 283.933 45.2247 283.951 46.1313H284.324C284.324 45.0469 283.614 44.3003 282.549 44.2825Z" fill="#4E266D"/>
<path d="M285.229 49.7756L285.247 44.3892H285.602L285.584 49.7756H285.229Z" fill="#4E266D"/>
<path d="M285.282 44.4425H285.549L285.531 49.7401H285.265L285.282 44.4425ZM285.194 44.3536L285.176 49.8289H285.637L285.655 44.3536H285.194Z" fill="#4E266D"/>
<path d="M290.128 49.7934L289.666 48.4068H287.146L286.649 49.7934H286.276L288.193 44.407H288.655L290.518 49.7934H290.128ZM287.235 48.0868H289.578L288.442 44.7092L287.235 48.0868Z" fill="#4E266D"/>
<path d="M288.229 44.4425H288.619L290.447 49.74H290.163L289.72 48.4068L289.702 48.3356H289.631H287.181H287.11L287.093 48.389L286.613 49.7223H286.347L288.229 44.4425ZM289.631 48.1401L289.595 48.0157L288.513 44.8336L288.424 44.5847L288.335 44.8336L287.199 48.0157L287.164 48.1401H287.288H289.489H289.631ZM288.158 44.3536L286.205 49.8289H286.684L287.181 48.4423H289.631L290.092 49.8289H290.571L288.69 44.3358L288.158 44.3536ZM289.507 48.0512H287.306L288.442 44.8691L289.507 48.0512Z" fill="#4E266D"/>
<path d="M290.66 50.7534L291.565 48.3535H291.938L290.944 50.7534H290.66Z" fill="#4E266D"/>
<path d="M291.583 48.3891H291.867L290.909 50.7178H290.731L291.583 48.3891ZM291.53 48.3002L290.607 50.8067H290.98L292.009 48.3002H291.53Z" fill="#4E266D"/>
<path d="M266.344 58.8064L266.362 53.4199H266.717L266.699 58.8064H266.344Z" fill="#4E266D"/>
<path d="M266.397 53.4732H266.663L266.646 58.7708H266.379L266.397 53.4732ZM266.308 53.3666L266.291 58.8419H266.752L266.77 53.3666H266.308Z" fill="#4E266D"/>
<path d="M271.083 58.8241L268.225 54.0777L268.208 58.8063H267.835L267.853 53.4199H268.19L271.065 58.1842L271.083 53.4733H271.456L271.438 58.8241H271.083Z" fill="#4E266D"/>
<path d="M267.906 53.4732H268.172L270.941 58.0596L271.118 58.3441V58.0063L271.136 53.5087H271.402L271.385 58.7707H271.101L268.332 54.202L268.154 53.9176V54.2554L268.137 58.7707H267.87L267.906 53.4732ZM267.817 53.3843L267.799 58.8596H268.261L268.279 54.2554L271.065 58.8774H271.491L271.509 53.4376H271.047L271.03 58.0241L268.225 53.3843H267.817Z" fill="#4E266D"/>
<path d="M272.361 57.0286V55.2154C272.361 54.0954 273.106 53.3132 274.189 53.3132C275.254 53.3132 276.017 54.1132 276.017 55.2332V57.0464C276.017 58.1664 275.254 58.9486 274.171 58.9486C273.106 58.9486 272.361 58.1664 272.361 57.0286ZM275.573 57.0642V55.2154C275.573 54.3265 274.988 53.7577 274.207 53.7577C273.444 53.7577 272.84 54.291 272.822 55.1976V57.0464C272.822 57.9353 273.39 58.5041 274.189 58.5041C274.952 58.5041 275.573 57.9708 275.573 57.0642Z" fill="#4E266D"/>
<path d="M274.189 58.9842C273.639 58.9842 273.177 58.7887 272.822 58.4331C272.485 58.0776 272.308 57.5976 272.308 57.0287V55.2155C272.308 54.6466 272.485 54.1666 272.84 53.8111C273.177 53.4556 273.657 53.26 274.189 53.26C275.289 53.26 276.053 54.0778 276.053 55.2333V57.0465C276.07 58.1842 275.307 58.9842 274.189 58.9842ZM272.414 57.0287C272.414 57.562 272.592 58.042 272.911 58.3798C273.231 58.7175 273.674 58.8953 274.207 58.8953C275.254 58.8953 275.982 58.1309 275.999 57.0465V55.2333C275.999 54.1311 275.272 53.3667 274.225 53.3667C273.71 53.3667 273.266 53.5444 272.929 53.8822C272.609 54.22 272.432 54.6822 272.432 55.2333L272.414 57.0287ZM274.207 58.5398C273.355 58.5398 272.787 57.9354 272.787 57.0465V55.1977C272.787 54.7533 272.929 54.38 273.195 54.0955C273.444 53.8466 273.799 53.7044 274.207 53.7044C275.059 53.7044 275.627 54.3089 275.627 55.2155V57.0643C275.609 57.9531 275.041 58.5398 274.207 58.5398ZM274.207 53.8111C273.834 53.8111 273.497 53.9355 273.266 54.1844C273.018 54.4333 272.876 54.7888 272.876 55.2155V57.0643C272.876 57.9176 273.39 58.4687 274.207 58.4687C274.988 58.4687 275.52 57.8998 275.538 57.0821V55.2333C275.538 54.38 275.006 53.8111 274.207 53.8111Z" fill="#4E266D"/>
<path d="M278.2 58.8419L276.372 53.4554H276.745L278.396 58.3441L280.082 53.4732H280.472L278.591 58.8596L278.2 58.8419Z" fill="#4E266D"/>
<path d="M276.443 53.5088H276.727L278.325 58.2374L278.413 58.4863L278.502 58.2374L280.135 53.5265H280.419L278.573 58.8063H278.254L276.443 53.5088ZM276.301 53.4021L278.165 58.8952H278.609L280.508 53.4199H280.029L278.378 58.2019L276.763 53.4199L276.301 53.4021Z" fill="#4E266D"/>
<path d="M283.951 58.8597L283.49 57.4731H280.969L280.472 58.8597H280.099L282.034 53.4733H282.496L284.359 58.8597H283.951ZM281.058 57.1709H283.383L282.247 53.7933L281.058 57.1709Z" fill="#4E266D"/>
<path d="M282.052 53.5265H282.442L284.271 58.8241H283.987L283.543 57.4908L283.525 57.4197H283.454H281.005H280.934L280.916 57.473L280.455 58.8063H280.171L282.052 53.5265ZM283.454 57.2242L283.419 57.0997L282.336 53.9176L282.247 53.6688L282.158 53.9176L281.023 57.0997L280.987 57.2242H281.111H283.312H283.454ZM281.981 53.4199L280.029 58.8952H280.508L281.005 57.5086H283.454L283.916 58.8952H284.395L282.513 53.4021L281.981 53.4199ZM283.33 57.1175H281.129L282.265 53.9354L283.33 57.1175Z" fill="#4E266D"/>
<path d="M286.507 53.7933C285.744 53.7933 285.123 54.3266 285.123 55.2332V57.0821C285.123 57.9709 285.691 58.5398 286.489 58.5398C287.394 58.5398 287.856 57.8287 287.874 56.9932H288.335C288.335 58.1131 287.696 58.8775 286.702 58.9664L286.241 60.0686H285.744L286.347 58.9842C285.353 58.9131 284.679 58.1487 284.679 57.0821V55.251C284.679 54.1311 285.424 53.3489 286.525 53.3489C287.643 53.3489 288.353 54.1488 288.353 55.3221H287.891C287.874 54.4688 287.377 53.7933 286.507 53.7933Z" fill="#4E266D"/>
<path d="M286.258 60.1218H285.655L286.258 59.0374C285.264 58.9485 284.608 58.1664 284.625 57.0997V55.2687C284.625 54.7176 284.821 54.2199 285.158 53.8643C285.495 53.5088 285.974 53.3132 286.507 53.3132C287.625 53.3132 288.388 54.131 288.371 55.3398V55.3931H287.82V55.3398C287.82 54.451 287.288 53.8643 286.507 53.8643H286.489C286.116 53.8643 285.797 53.9888 285.548 54.2199C285.3 54.4687 285.158 54.8243 285.158 55.2509V57.0997C285.158 57.9353 285.69 58.5041 286.489 58.5041C286.844 58.5041 287.164 58.3797 287.394 58.1486C287.661 57.8819 287.82 57.4731 287.82 57.0109V56.9575H288.371V57.0109C288.371 58.1486 287.732 58.9308 286.72 59.0196L286.258 60.1218ZM285.815 60.0152H286.187L286.649 58.9308H286.684C287.643 58.8597 288.264 58.113 288.282 57.0464H287.909C287.891 57.5264 287.732 57.9353 287.465 58.2019C287.217 58.4508 286.88 58.5752 286.507 58.5752C285.655 58.5752 285.087 57.9708 285.087 57.0642V55.2154C285.087 54.7709 285.229 54.3799 285.513 54.1132C285.761 53.8643 286.116 53.7221 286.507 53.7221H286.525C287.359 53.7221 287.909 54.3265 287.945 55.2509H288.317C288.3 54.1132 287.607 53.3843 286.542 53.3666C286.028 53.3666 285.584 53.5443 285.264 53.8821C284.945 54.2199 284.767 54.6821 284.767 55.2154V57.0464C284.767 58.0952 285.424 58.8419 286.4 58.8952H286.471L285.815 60.0152Z" fill="#4E266D"/>
<path d="M292.08 57.5442L289.631 57.5264L289.134 58.913H288.655L290.607 53.4377H291.122L293.021 58.9308H292.542L292.08 57.5442ZM291.459 52.851C291.051 52.851 290.713 52.5488 290.323 52.5488C290.163 52.5488 289.844 52.6555 289.577 52.851V52.4599C289.844 52.2644 290.074 52.1933 290.287 52.1933C290.713 52.1933 291.051 52.4777 291.423 52.4777C291.619 52.4777 291.885 52.371 292.151 52.1577V52.5666C291.903 52.7799 291.672 52.851 291.459 52.851ZM291.956 57.1531L290.873 53.971L289.755 57.1531H291.956Z" fill="#4E266D"/>
<path d="M293.092 58.9841H292.506L292.045 57.5975H289.666L289.169 58.9841H288.601L290.589 53.4199H291.175L291.193 53.4555L293.092 58.9841ZM292.577 58.8952H292.968L291.104 53.5088H290.66L288.726 58.8952H289.098L289.595 57.5086L292.116 57.5264L292.577 58.8952ZM292.027 57.1886H289.702L290.891 53.8288L292.027 57.1886ZM289.826 57.0997H291.903L290.891 54.1132L289.826 57.0997ZM289.542 52.9399V52.4422L289.56 52.4244C289.808 52.2288 290.039 52.14 290.305 52.14C290.536 52.14 290.731 52.2111 290.926 52.3C291.104 52.3711 291.264 52.4244 291.441 52.4244C291.636 52.4244 291.903 52.3177 292.133 52.1222L292.204 52.0688V52.5844L292.187 52.6022C291.938 52.8155 291.707 52.9044 291.441 52.9044C291.228 52.9044 291.033 52.8333 290.838 52.7444C290.66 52.6733 290.483 52.6022 290.287 52.6022C290.128 52.6022 289.826 52.7088 289.578 52.8866L289.542 52.9399ZM290.323 52.5133C290.536 52.5133 290.713 52.5844 290.891 52.6733C291.068 52.7444 291.246 52.8155 291.459 52.8155C291.69 52.8155 291.885 52.7266 292.116 52.5488V52.2644C291.885 52.4422 291.636 52.5311 291.441 52.5311C291.246 52.5311 291.068 52.4599 290.891 52.3888C290.696 52.3177 290.518 52.2466 290.305 52.2466C290.074 52.2466 289.862 52.3177 289.631 52.4955V52.7799C289.897 52.6022 290.163 52.5133 290.323 52.5133Z" fill="#4E266D"/>
<path d="M293.305 57.0997V55.2865C293.305 54.1487 294.05 53.3666 295.151 53.3843C296.216 53.3843 296.979 54.1843 296.979 55.3043V57.1175C296.979 58.2375 296.216 59.0197 295.133 59.0197C294.033 59.0019 293.305 58.2375 293.305 57.0997ZM296.5 57.1353V55.2865C296.5 54.3976 295.932 53.8288 295.133 53.8288C294.37 53.8288 293.766 54.3621 293.766 55.2687L293.749 57.1175C293.749 58.0064 294.317 58.5575 295.115 58.5752C295.878 58.5752 296.5 58.0419 296.5 57.1353Z" fill="#4E266D"/>
<path d="M295.133 59.0553C294.583 59.0553 294.104 58.8597 293.766 58.5042C293.429 58.1486 293.252 57.6686 293.252 57.0998V55.2865C293.252 54.131 294.033 53.3311 295.133 53.3311C296.233 53.3311 297.014 54.1488 297.014 55.2865V57.0998C296.997 58.2553 296.233 59.0553 295.133 59.0553ZM295.133 53.4377C294.086 53.4377 293.34 54.2021 293.34 55.3043V57.1176C293.34 57.6509 293.5 58.1308 293.837 58.4686C294.157 58.8064 294.601 58.9841 295.133 58.9841H295.151C296.198 58.9841 296.926 58.2197 296.926 57.1353V55.3221C296.926 54.2021 296.198 53.4377 295.133 53.4377ZM295.133 58.6108C294.707 58.6108 294.37 58.4686 294.104 58.202C293.837 57.9353 293.713 57.562 293.713 57.1176V55.2687C293.713 54.8243 293.855 54.4332 294.121 54.1666C294.37 53.9177 294.725 53.7755 295.115 53.7755C295.523 53.7755 295.861 53.9177 296.127 54.1666C296.393 54.4332 296.535 54.8243 296.535 55.2687V57.1176C296.553 58.0242 295.985 58.6108 295.133 58.6108ZM295.133 53.8821C294.76 53.8821 294.423 54.0066 294.192 54.2555C293.944 54.5043 293.802 54.8599 293.802 55.2865V57.1353C293.802 57.562 293.926 57.9175 294.175 58.1664C294.405 58.4153 294.743 58.5397 295.133 58.5397C295.914 58.5397 296.464 57.9886 296.464 57.1531V55.3043C296.464 54.8777 296.34 54.5221 296.074 54.2555C295.843 54.0066 295.523 53.8821 295.133 53.8821Z" fill="#4E266D"/>
<path d="M266.344 68.477L266.362 63.0906L269.308 63.1084V63.4639L266.717 63.4461V65.5971H268.563V65.9171H266.717V68.1215L269.29 68.1392V68.4948L266.344 68.477Z" fill="#4E266D"/>
<path d="M266.415 63.1439H269.255V63.4106H266.77H266.681V63.4994V65.5438V65.6327H266.77H268.527V65.8638H266.77H266.681V65.9527V68.0681V68.157H266.77H269.255V68.4237L266.397 68.4059L266.415 63.1439ZM266.308 63.0372L266.291 68.5126L269.326 68.5303V68.0859H266.752V65.9704H268.598V65.5616H266.752V63.5172L269.326 63.535V63.0906L266.308 63.0372Z" fill="#4E266D"/>
<path d="M272.929 68.4948L272.947 63.4639H271.438V63.1084L274.846 63.1262V63.4817L273.319 63.4639L273.302 68.4948H272.929Z" fill="#4E266D"/>
<path d="M271.491 63.1617L274.793 63.1795V63.4461H273.355H273.266V63.535L273.248 68.477H272.982L273 63.535V63.4461H272.911H271.491V63.1617ZM271.402 63.0551V63.4995H272.911L272.893 68.5304H273.355L273.373 63.4995H274.899V63.0551H271.402Z" fill="#4E266D"/>
<path d="M275.609 68.5125L275.627 63.1261H278.555V63.4816H275.982V65.6327H277.828V65.9526L275.982 65.9349V68.157H278.555L278.538 68.5125H275.609Z" fill="#4E266D"/>
<path d="M275.662 63.1616L278.502 63.1794V63.4461H276.017H275.928V63.535L275.911 65.5793V65.6682H275.999H277.757V65.8993H275.999H275.911V65.9882V68.1037V68.1925H275.999H278.484V68.4592H275.644L275.662 63.1616ZM275.573 63.0728L275.556 68.5481L278.591 68.5659V68.1214H276.017V66.006H277.863V65.5971H276.017L276.035 63.5527H278.608V63.1083L275.573 63.0728Z" fill="#4E266D"/>
<path d="M280.969 68.637C279.886 68.637 279.141 67.837 279.141 66.7171V64.886C279.141 63.7661 279.886 62.9839 280.987 62.9839C282.087 62.9839 282.815 63.8016 282.815 64.9571H282.354C282.354 64.1038 281.857 63.4283 280.987 63.4283C280.224 63.4283 279.62 63.9616 279.62 64.8683V66.7171C279.62 67.4815 280.099 68.1748 280.987 68.1748C281.892 68.1748 282.354 67.4637 282.371 66.6282H282.833C282.797 67.8192 282.07 68.637 280.969 68.637Z" fill="#4E266D"/>
<path d="M280.969 68.6904C279.851 68.6904 279.088 67.8726 279.088 66.7349V64.9039C279.088 64.335 279.283 63.8195 279.638 63.4817C279.975 63.144 280.437 62.9662 280.969 62.9662C282.087 62.9662 282.851 63.7839 282.833 64.975V65.0283H282.283V64.975C282.283 64.0861 281.75 63.4995 280.951 63.4995C280.579 63.4995 280.241 63.6239 280.011 63.8728C279.762 64.1217 279.62 64.4772 279.62 64.9039V66.7705C279.62 67.446 280.028 68.1748 280.951 68.1748H280.969C281.377 68.1748 281.715 68.0149 281.945 67.7304C282.158 67.4638 282.283 67.0905 282.283 66.6816V66.6282H282.833V66.6816C282.833 67.8726 282.087 68.6904 280.969 68.6904ZM280.969 68.6015C282.016 68.6015 282.726 67.8371 282.762 66.7171H282.407C282.389 67.126 282.265 67.5171 282.052 67.7838C281.803 68.1037 281.431 68.2637 281.005 68.2637H280.987C280.011 68.2637 279.567 67.4815 279.567 66.7527V64.9039C279.567 64.4595 279.709 64.0861 279.975 63.8195C280.224 63.5706 280.579 63.4284 280.987 63.4284C281.821 63.4284 282.371 64.0328 282.407 64.9572H282.78C282.762 63.8373 282.052 63.0906 281.005 63.0728C280.49 63.0728 280.064 63.2328 279.727 63.5528C279.389 63.8906 279.212 64.3706 279.212 64.9217V66.7527C279.177 67.8193 279.904 68.5837 280.969 68.6015Z" fill="#4E266D"/>
<path d="M286.897 68.5481L284.022 63.8017L284.004 68.5304H283.649L283.667 63.1439H284.004L286.88 67.9082L286.897 63.1972H287.252L287.235 68.5481H286.897Z" fill="#4E266D"/>
<path d="M283.703 63.1972H283.969L286.738 67.7837L286.915 68.0681V67.7304L286.933 63.2328H287.199L287.181 68.4948H286.897L284.129 63.9261L283.951 63.6417V63.9794L283.933 68.4948H283.667L283.703 63.1972ZM283.614 63.1084L283.596 68.5837H284.058L284.075 63.9794L286.862 68.6015H287.288L287.306 63.1617H286.844L286.826 67.7304L284.022 63.0906L283.614 63.1084Z" fill="#4E266D"/>
<path d="M288.175 66.7527V64.9394C288.175 63.8195 288.921 63.0195 290.021 63.0373C291.086 63.0373 291.849 63.8195 291.849 64.9572L291.832 66.7705C291.832 67.8904 291.068 68.6726 289.986 68.6726C288.903 68.6548 288.175 67.8726 288.175 66.7527ZM291.37 66.7705V64.9394C291.37 64.0506 290.802 63.4817 290.003 63.4817C289.24 63.4817 288.637 64.015 288.637 64.9216V66.7705C288.637 67.6593 289.205 68.2104 290.003 68.2282C290.767 68.2282 291.37 67.6949 291.37 66.7705Z" fill="#4E266D"/>
<path d="M290.003 68.7081C288.885 68.7081 288.122 67.8903 288.122 66.7526V64.9394C288.122 63.7839 288.903 62.9839 290.003 62.9839H290.021C291.122 62.9839 291.903 63.8016 291.903 64.9394L291.885 66.7526C291.885 67.3215 291.69 67.8192 291.335 68.1748C290.997 68.5303 290.536 68.7081 290.003 68.7081ZM288.211 66.7526C288.211 67.8548 288.921 68.6192 289.986 68.6192C290.483 68.6192 290.926 68.4414 291.246 68.1214C291.583 67.7837 291.761 67.3037 291.761 66.7526L291.778 64.9394C291.778 63.8372 291.051 63.0728 290.003 63.0728H289.986C288.939 63.0728 288.211 63.8372 288.193 64.9394L288.211 66.7526ZM290.003 68.2637C289.595 68.2637 289.24 68.1214 288.992 67.8548C288.726 67.5881 288.601 67.2148 288.601 66.7704V64.9216C288.601 64.0505 289.187 63.4283 290.021 63.4283C290.873 63.4283 291.441 64.0327 291.441 64.9394V66.7882C291.423 67.677 290.855 68.2637 290.003 68.2637ZM290.003 63.5172C289.223 63.5172 288.69 64.0861 288.672 64.9216V66.7704C288.672 67.197 288.797 67.5526 289.045 67.8015C289.276 68.0503 289.613 68.1748 290.003 68.1748C290.802 68.1748 291.335 67.6059 291.335 66.7704V64.9216C291.335 64.1038 290.802 63.535 290.003 63.5172Z" fill="#4E266D"/>
<path d="M292.755 68.566L292.772 63.1796H293.145L293.127 68.2105L295.541 68.2282L295.524 68.5838L292.755 68.566Z" fill="#4E266D"/>
<path d="M292.826 63.2328H293.11L293.092 68.1748V68.2637H293.181H295.488V68.5303L292.808 68.5125L292.826 63.2328ZM292.737 63.1261L292.719 68.6014L295.577 68.6192V68.1748H293.163L293.181 63.1439L292.737 63.1261Z" fill="#4E266D"/>
<path d="M296.074 66.7704V64.9572C296.074 63.8372 296.819 63.0551 297.902 63.0551C298.967 63.0551 299.73 63.855 299.73 64.975V66.7882C299.73 67.9082 298.967 68.6904 297.884 68.6904C296.819 68.6904 296.074 67.9082 296.074 66.7704ZM299.286 66.806V64.9572C299.286 64.0683 298.718 63.4995 297.92 63.4995C297.156 63.4995 296.535 64.0328 296.535 64.9394V66.7882C296.535 67.6771 297.103 68.2282 297.902 68.2459C298.665 68.2459 299.286 67.7304 299.286 66.806Z" fill="#4E266D"/>
<path d="M297.92 68.7437C297.387 68.7437 296.926 68.566 296.571 68.2282C296.216 67.8727 296.021 67.3571 296.021 66.7883V64.975C296.021 64.4061 296.216 63.8906 296.571 63.5351C296.908 63.1973 297.369 63.0195 297.902 63.0195C298.434 63.0195 298.914 63.2151 299.251 63.5706C299.588 63.9262 299.783 64.4239 299.766 64.975V66.7883C299.783 67.9438 299.02 68.7437 297.92 68.7437ZM296.127 66.7705C296.127 67.3216 296.304 67.8015 296.642 68.1393C296.961 68.4593 297.405 68.6371 297.902 68.6371H297.92C298.967 68.6371 299.695 67.8727 299.695 66.7883V64.975C299.695 64.4417 299.517 63.9617 299.198 63.6239C298.878 63.2862 298.417 63.1084 297.92 63.0906C297.423 63.0906 296.979 63.2684 296.659 63.5884C296.322 63.9262 296.145 64.4061 296.145 64.9572L296.127 66.7705ZM297.92 68.2993C297.068 68.2993 296.5 67.6949 296.5 66.806V64.9572C296.5 64.5128 296.642 64.1395 296.908 63.8551C297.156 63.6062 297.511 63.464 297.92 63.464C298.328 63.464 298.665 63.6062 298.914 63.8551C299.18 64.1217 299.322 64.5128 299.322 64.9572V66.806C299.322 67.2505 299.18 67.6416 298.896 67.9082C298.665 68.1571 298.31 68.2993 297.92 68.2993ZM297.92 63.5528C297.547 63.5528 297.21 63.6773 296.979 63.9262C296.73 64.175 296.588 64.5306 296.588 64.9572V66.806C296.588 67.6593 297.103 68.2104 297.92 68.2104H297.937C298.31 68.2104 298.63 68.086 298.878 67.8549C299.127 67.606 299.269 67.2505 299.269 66.8238V64.975C299.269 64.5484 299.144 64.1928 298.878 63.9262C298.612 63.6773 298.292 63.5528 297.92 63.5528Z" fill="#4E266D"/>
<path d="M302.304 63.5172C301.469 63.5172 300.937 64.086 300.937 65.0993V66.8237C300.937 67.7126 301.523 68.2636 302.304 68.2814C303.102 68.2814 303.688 67.7303 303.688 66.8415V66.5393H302.321V66.1304H304.15V66.8415C304.15 67.9614 303.386 68.7436 302.304 68.7436C301.221 68.7436 300.475 67.9437 300.493 66.8237V64.9749C300.493 63.8549 301.239 63.0728 302.321 63.0728C303.386 63.0728 304.132 63.8549 304.15 64.9393H303.688C303.67 64.0683 303.085 63.5172 302.304 63.5172Z" fill="#4E266D"/>
<path d="M302.286 68.7615C301.186 68.7615 300.422 67.9438 300.422 66.806V64.9572C300.422 64.3884 300.618 63.8728 300.973 63.5351C301.31 63.1973 301.771 63.0195 302.286 63.0195H302.304C303.386 63.0195 304.15 63.8017 304.185 64.9217V64.975H303.635V64.9217C303.617 64.1039 303.085 63.5528 302.304 63.5528C301.487 63.5528 300.99 64.1217 300.99 65.0817V66.806C300.99 67.2327 301.115 67.5882 301.381 67.8371C301.612 68.0682 301.931 68.2104 302.304 68.2104H302.322C302.694 68.2104 303.014 68.086 303.262 67.8549C303.511 67.606 303.653 67.2505 303.653 66.8238V66.5572H302.286V66.0416H304.203V66.806C304.203 67.3571 304.008 67.8549 303.67 68.2104C303.298 68.566 302.818 68.7615 302.286 68.7615ZM302.304 63.1084C301.807 63.1084 301.381 63.2684 301.061 63.5884C300.724 63.9262 300.547 64.4061 300.529 64.9572V66.806C300.529 67.8904 301.257 68.6726 302.304 68.6726C302.818 68.6726 303.262 68.4949 303.582 68.1571C303.901 67.8193 304.079 67.3571 304.079 66.8238V66.1483H302.339V66.4683H303.706V66.8238C303.706 67.2682 303.564 67.6593 303.298 67.926C303.049 68.1749 302.694 68.3171 302.304 68.3171H302.286C301.896 68.3171 301.541 68.1749 301.292 67.926C301.026 67.6593 300.884 67.2682 300.884 66.8238V65.0994C300.884 64.0862 301.416 63.4817 302.304 63.4817C303.12 63.4817 303.688 64.0506 303.724 64.9039H304.096C304.043 63.8373 303.315 63.1262 302.304 63.1084Z" fill="#4E266D"/>
<path d="M305.055 68.6015L305.073 63.2151H305.428L305.41 68.6015H305.055Z" fill="#4E266D"/>
<path d="M305.108 63.2685H305.374L305.357 68.566H305.09L305.108 63.2685ZM305.019 63.1796L305.002 68.6549H305.463L305.481 63.1796H305.019Z" fill="#4E266D"/>
<path d="M309.954 68.6193L309.492 67.2327L306.972 67.2149L306.475 68.6015H306.102L308.019 63.2151H308.48L310.344 68.6015H309.954V68.6193ZM307.061 66.9127H309.386L308.25 63.5351L307.061 66.9127Z" fill="#4E266D"/>
<path d="M308.054 63.2685H308.445L310.273 68.566H309.989L309.545 67.2327L309.528 67.1616H309.457L307.007 67.1438H306.936L306.918 67.1972L306.439 68.5304H306.173L308.054 63.2685ZM309.457 66.9661L309.421 66.8416L308.338 63.6595L308.25 63.4107L308.161 63.6595L307.043 66.8416L307.007 66.9661H307.131H309.332H309.457ZM307.983 63.1796L306.031 68.6549H306.51L307.007 67.2683L309.457 67.2861L309.918 68.6727H310.397L308.516 63.1796H307.983ZM309.332 66.8772H307.131L308.25 63.6951L309.332 66.8772Z" fill="#4E266D"/>
<path d="M268.119 40.6204C267.036 40.6204 266.291 39.8382 266.291 38.7183L266.308 36.8872C266.308 35.7673 267.054 34.9851 268.154 34.9851C269.255 34.9851 269.982 35.8028 269.982 36.9584H269.521C269.521 36.1051 269.024 35.4295 268.154 35.4295C267.391 35.4295 266.788 35.9628 266.77 36.8695V38.7361C266.77 39.5005 267.249 40.1938 268.137 40.1938C269.042 40.1938 269.503 39.4827 269.521 38.6472H269.982C269.947 39.8027 269.237 40.6204 268.119 40.6204Z" fill="#4E266D"/>
<path d="M268.137 40.656C267.018 40.656 266.255 39.8561 266.255 38.7006L266.273 36.8695C266.273 35.714 267.054 34.9141 268.154 34.9141C269.273 34.9141 270.036 35.7318 270.018 36.9406V36.994H269.468V36.9406C269.468 36.0518 268.935 35.4652 268.137 35.4652C267.764 35.4652 267.444 35.5896 267.196 35.8207C266.947 36.0696 266.805 36.4251 266.805 36.8518V38.7183C266.805 39.1272 266.947 39.5005 267.196 39.7672C267.427 39.9983 267.746 40.1227 268.119 40.1227C269.024 40.1227 269.432 39.3761 269.45 38.6295V38.5761H270V38.6295C270 39.8383 269.255 40.656 268.137 40.656ZM268.137 35.0207C267.072 35.0207 266.362 35.7674 266.344 36.8695L266.326 38.7006C266.326 39.8027 267.054 40.5672 268.101 40.5672H268.119C269.166 40.5672 269.876 39.8027 269.894 38.6828H269.521C269.503 39.465 269.06 40.2294 268.101 40.2294C267.711 40.2294 267.373 40.0872 267.107 39.8383C266.823 39.5539 266.681 39.1628 266.681 38.7183V36.8518C266.681 36.4073 266.823 36.034 267.089 35.7496C267.338 35.5007 267.693 35.3585 268.083 35.3585C268.918 35.3585 269.468 35.9807 269.503 36.8873H269.858C269.911 35.7851 269.201 35.0207 268.137 35.0207Z" fill="#4E266D"/>
<path d="M270.604 38.7183V36.9051C270.604 35.7851 271.349 35.0029 272.45 35.0029C273.515 35.0029 274.278 35.7851 274.278 36.9228V38.7361C274.278 39.8561 273.515 40.6382 272.45 40.6382C271.349 40.6205 270.604 39.8383 270.604 38.7183ZM273.816 38.7361V36.8873C273.816 35.9984 273.231 35.4296 272.45 35.4296C271.669 35.4296 271.065 35.9629 271.065 36.8695V38.7183C271.065 39.6072 271.633 40.1583 272.432 40.1583C273.195 40.176 273.816 39.6605 273.816 38.7361Z" fill="#4E266D"/>
<path d="M272.45 40.6738C271.331 40.6738 270.568 39.8738 270.568 38.7183V36.9051C270.568 36.3362 270.746 35.8562 271.101 35.5007C271.438 35.1451 271.917 34.9496 272.45 34.9496C272.964 34.9496 273.443 35.1451 273.781 35.4829C274.136 35.8384 274.331 36.354 274.331 36.9228V38.7361C274.331 39.305 274.136 39.8027 273.781 40.1582C273.443 40.4782 272.964 40.6738 272.45 40.6738ZM270.657 38.7183C270.657 39.8383 271.367 40.5849 272.432 40.5849H272.45C272.947 40.5849 273.39 40.4071 273.71 40.0871C274.047 39.7494 274.224 39.2694 274.242 38.7361V36.9228C274.242 36.3717 274.065 35.8918 273.727 35.554C273.408 35.234 272.964 35.0562 272.467 35.0562C271.953 35.0562 271.509 35.234 271.189 35.5718C270.87 35.9095 270.692 36.3717 270.692 36.9228L270.657 38.7183ZM272.45 40.2294C272.041 40.2294 271.686 40.0871 271.438 39.8383C271.172 39.5716 271.03 39.1805 271.03 38.7361V36.8873C271.03 36.4429 271.172 36.0695 271.438 35.8029C271.686 35.554 272.059 35.4118 272.45 35.4118C272.858 35.4118 273.213 35.554 273.461 35.8207C273.727 36.0873 273.869 36.4784 273.852 36.9228V38.7716C273.852 39.2161 273.71 39.5894 273.443 39.856C273.195 40.0871 272.84 40.2294 272.45 40.2294ZM272.45 35.4829C272.077 35.4829 271.74 35.6073 271.509 35.8562C271.26 36.1051 271.118 36.4606 271.118 36.8873V38.7361C271.118 39.1627 271.243 39.5183 271.491 39.7672C271.722 39.9983 272.059 40.1405 272.432 40.1405C272.805 40.1405 273.142 40.016 273.372 39.7672C273.621 39.5183 273.763 39.1627 273.763 38.7361V36.8873C273.763 36.4606 273.639 36.1051 273.39 35.8562C273.177 35.6251 272.84 35.4829 272.45 35.4829Z" fill="#4E266D"/>
<path d="M278.449 40.5317L275.591 35.7852L275.573 40.5317H275.201L275.218 35.1274H275.556L278.431 39.8917L278.449 35.1808H278.804V40.5317H278.449Z" fill="#4E266D"/>
<path d="M275.538 35.1807L278.307 39.7672L278.484 40.0516V39.7138L278.502 35.2162H278.768L278.751 40.4782H278.467L275.698 35.9095L275.52 35.6251V35.9629L275.502 40.4782H275.236L275.254 35.1807H275.538ZM275.591 35.0918H275.183L275.165 40.5671H275.627L275.644 35.9629L278.431 40.5849H278.857L278.875 35.1451H278.413L278.396 39.7316L275.591 35.0918Z" fill="#4E266D"/>
<path d="M282.975 40.5494V37.9895L280.295 37.9717V40.5316H279.922L279.94 35.1451H280.313L280.295 37.6695H282.975V35.1629H283.348L283.33 40.5494H282.975Z" fill="#4E266D"/>
<path d="M279.993 35.1985H280.259V37.6162V37.7051H280.348L282.922 37.7228H283.01V37.634V35.2163H283.277L283.259 40.5138H282.993V38.0428V37.9539H282.904L280.313 37.9362H280.224V38.025V40.4961H279.958L279.993 35.1985ZM279.887 35.1096L279.869 40.5849H280.33V38.025L282.922 38.0428L282.904 40.6027H283.365L283.383 35.1274H282.922V37.634L280.348 37.6162V35.1096H279.887Z" fill="#4E266D"/>
<path d="M284.466 40.5494L284.484 35.163L287.43 35.1807V35.5363L284.839 35.5185V37.6695H286.684V37.9895H284.839V40.1939L287.412 40.2116V40.5672L284.466 40.5494Z" fill="#4E266D"/>
<path d="M284.519 35.2163L287.377 35.2341V35.5007L284.892 35.4829H284.803V35.5718L284.785 37.6162V37.7051H284.874H286.631V37.9362H284.874H284.785V38.025V40.1405V40.2294H284.874L287.359 40.2472V40.4961L284.519 40.4783V35.2163ZM284.43 35.1096L284.413 40.5849L287.448 40.6027V40.1583L284.874 40.1405V38.025H286.72V37.6162H284.874L284.892 35.5718L287.465 35.5896V35.1274L284.43 35.1096Z" fill="#4E266D"/>
<path d="M289.808 40.6916C288.726 40.6916 287.98 39.8916 287.98 38.7894V36.9584C287.98 35.8385 288.726 35.0563 289.808 35.0563C290.927 35.0563 291.637 35.874 291.637 37.0295H291.175C291.175 36.1762 290.678 35.5007 289.808 35.5007C289.045 35.5007 288.442 36.034 288.442 36.9406L288.424 38.8072C288.424 39.5716 288.903 40.2649 289.791 40.2649C290.696 40.2649 291.175 39.5361 291.175 38.7183H291.637C291.654 39.8738 290.927 40.6916 289.808 40.6916Z" fill="#4E266D"/>
<path d="M289.826 40.7271C289.276 40.7271 288.797 40.5316 288.459 40.176C288.122 39.8205 287.945 39.3227 287.945 38.7717V36.9406C287.945 36.3718 288.14 35.8562 288.495 35.5185C288.832 35.1807 289.294 35.0029 289.808 35.0029H289.826C290.358 35.0029 290.802 35.1807 291.139 35.5185C291.494 35.874 291.69 36.4073 291.69 37.0117V37.0651H291.139V37.0117C291.139 36.1229 290.607 35.5362 289.808 35.5362C289.436 35.5362 289.116 35.6607 288.868 35.9096C288.619 36.1584 288.477 36.514 288.477 36.9406L288.459 38.8072C288.459 39.2161 288.601 39.5894 288.85 39.8561C289.081 40.0872 289.4 40.2294 289.773 40.2294C290.696 40.2294 291.104 39.4827 291.104 38.7361V38.6828H291.654V38.7361C291.654 39.3227 291.477 39.8383 291.139 40.1938C290.855 40.5316 290.376 40.7271 289.826 40.7271ZM289.826 35.0918C289.329 35.0918 288.885 35.2518 288.566 35.5718C288.229 35.9096 288.051 36.3895 288.051 36.9406V38.7717C288.051 39.305 288.229 39.7849 288.548 40.1049C288.868 40.4427 289.311 40.6205 289.844 40.6205C290.376 40.6205 290.82 40.4427 291.139 40.0872C291.441 39.7494 291.619 39.2872 291.636 38.7361H291.281C291.264 39.5183 290.82 40.2827 289.861 40.2827C289.471 40.2827 289.116 40.1405 288.868 39.8916C288.601 39.6072 288.442 39.2161 288.442 38.7894L288.459 36.9228C288.459 36.4784 288.601 36.1051 288.868 35.8207C289.116 35.5718 289.471 35.4296 289.861 35.4296C290.696 35.4296 291.246 36.0518 291.281 36.9584H291.654C291.654 36.4073 291.459 35.9096 291.122 35.5718C290.767 35.2696 290.341 35.0918 289.826 35.0918Z" fill="#4E266D"/>
<path d="M292.506 40.5849L292.524 35.1985H292.879L292.861 40.5849H292.506Z" fill="#4E266D"/>
<path d="M292.843 35.234L292.826 40.5316H292.559L292.577 35.234H292.843ZM292.932 35.1451H292.471L292.453 40.6205H292.914L292.932 35.1451Z" fill="#4E266D"/>
<path d="M298.097 40.6027V35.9985L296.375 39.7138H296.074L294.388 35.9807L294.37 40.5849H293.997L294.015 35.1985H294.37L296.216 39.305L298.115 35.2163H298.47L298.452 40.6027H298.097Z" fill="#4E266D"/>
<path d="M294.068 35.2518H294.352L296.145 39.2339L296.234 39.4116L296.322 39.2339L298.15 35.2518H298.434L298.417 40.5494H298.15L298.168 36.2118V35.7851L297.991 36.1762L296.376 39.6783H296.127L294.53 36.1584L294.352 35.7673V36.194L294.334 40.5316H294.068V35.2518ZM293.962 35.1451L293.944 40.6205H294.405L294.423 36.194L296.038 39.7672H296.411L298.062 36.2118L298.044 40.656H298.505L298.523 35.1807H298.097L296.234 39.2161L294.423 35.1807L293.962 35.1451Z" fill="#4E266D"/>
<path d="M299.588 40.6027L299.606 35.2163L302.552 35.2341V35.5896L299.961 35.5718V37.7229H301.807V38.0429H299.961L299.943 40.2472L302.534 40.265L302.517 40.6205L299.588 40.6027Z" fill="#4E266D"/>
<path d="M299.641 35.2696L302.499 35.2874V35.5541L300.014 35.5363H299.925V35.6252V37.6695V37.7584H300.014H301.771V37.9895H300.014H299.925V38.0784V40.1939V40.2827H300.014H302.499V40.5494L299.641 40.5316V35.2696ZM299.553 35.163L299.535 40.6383L302.57 40.6561V40.2116H299.996V38.0962H301.842V37.6873H299.996V35.6429L302.57 35.6607V35.2163L299.553 35.163Z" fill="#4E266D"/>
<path d="M306.705 40.6204L303.848 35.8918L303.83 40.6204H303.457L303.475 35.234H303.812L306.688 39.9805L306.705 35.2696H307.078L307.06 40.6204H306.705Z" fill="#4E266D"/>
<path d="M303.528 35.2695H303.795L306.563 39.856L306.741 40.1405V39.8027L306.759 35.3051H307.025L307.007 40.5671H306.741L303.972 35.9984L303.795 35.714V36.0517L303.777 40.5671H303.511L303.528 35.2695ZM303.44 35.1807L303.422 40.656H303.883L303.901 36.0517L306.688 40.6738H307.114L307.131 35.234H306.67L306.652 39.8205L303.848 35.1807H303.44Z" fill="#4E266D"/>
<path d="M309.35 40.6383L309.368 35.6074H307.859V35.2518H311.249V35.6074H309.741L309.723 40.6383H309.35Z" fill="#4E266D"/>
<path d="M307.912 35.2874H311.214V35.554H309.794H309.705V35.6429L309.687 40.5849H309.421L309.439 35.6429V35.554H309.35H307.93V35.2874H307.912ZM307.806 35.1985V35.6429H309.315L309.297 40.6738H309.758L309.776 35.6429H311.303V35.1985H307.806Z" fill="#4E266D"/>
<path d="M311.587 38.8428V37.0295C311.587 35.9096 312.332 35.1096 313.415 35.1274C314.497 35.1274 315.243 35.9273 315.243 37.0473L315.225 38.8605C315.225 39.9983 314.462 40.7627 313.397 40.7627C312.332 40.7449 311.587 39.9805 311.587 38.8428ZM314.799 38.8783V37.0295C314.799 36.1407 314.231 35.5718 313.432 35.5718C312.669 35.5718 312.048 36.1051 312.048 37.0117V38.8605C312.048 39.7494 312.616 40.3005 313.415 40.3005C314.178 40.3183 314.799 39.7849 314.799 38.8783Z" fill="#4E266D"/>
<path d="M313.432 40.7983C312.882 40.7983 312.403 40.6027 312.066 40.2472C311.729 39.8917 311.551 39.4117 311.551 38.8428V37.0296C311.551 36.4607 311.746 35.9452 312.101 35.5896C312.438 35.2519 312.9 35.0741 313.415 35.0741C314.515 35.0741 315.296 35.8918 315.296 37.0296L315.278 38.8428C315.278 39.4117 315.101 39.8917 314.746 40.2472C314.426 40.6205 313.947 40.7983 313.432 40.7983ZM313.432 35.1808C312.935 35.1808 312.492 35.3585 312.172 35.6785C311.835 36.0163 311.658 36.4963 311.64 37.0473V38.8606C311.64 39.3939 311.8 39.8739 312.137 40.2117C312.456 40.5494 312.9 40.7272 313.432 40.7272C313.929 40.7272 314.391 40.5494 314.71 40.2117C315.03 39.8739 315.207 39.4117 315.207 38.8606L315.225 37.0473C315.225 35.9452 314.48 35.1808 313.432 35.1808ZM313.432 40.3539C313.006 40.3539 312.669 40.2117 312.403 39.9628C312.137 39.6961 311.995 39.305 311.995 38.8606V37.0118C311.995 36.1407 312.58 35.5185 313.415 35.5185C313.823 35.5185 314.16 35.6607 314.426 35.9096C314.693 36.1763 314.835 36.5674 314.835 37.0118V38.8606C314.835 39.305 314.693 39.6961 314.426 39.9628C314.178 40.2117 313.823 40.3539 313.432 40.3539ZM313.432 35.6252C312.634 35.6252 312.101 36.194 312.101 37.0118V38.8606C312.101 39.2873 312.225 39.6428 312.474 39.8917C312.705 40.1228 313.042 40.265 313.415 40.265H313.432C313.805 40.265 314.125 40.1405 314.355 39.9094C314.604 39.6606 314.746 39.305 314.746 38.8784V37.0296C314.746 36.6029 314.622 36.2474 314.355 35.9807C314.142 35.7496 313.805 35.6252 313.432 35.6252Z" fill="#4E266D"/>
<path d="M315.651 41.616L316.539 39.1984H316.929L315.935 41.616H315.651Z" fill="#4E266D"/>
<path d="M316.574 39.2516H316.858L315.9 41.5804H315.722L316.574 39.2516ZM316.503 39.1627L315.58 41.6693H315.953L316.982 39.1627H316.503Z" fill="#4E266D"/>
<path d="M100.975 25.8656C94.3722 25.8656 89.7929 30.5765 89.7752 37.3496L89.7397 48.9046C89.7219 55.731 94.3012 60.4774 100.922 60.4952H100.975C107.524 60.4952 112.104 55.7843 112.121 48.9757V47.038L103.708 47.0202V49.2424C103.691 52.1222 102.253 52.46 100.975 52.46H100.939C99.6082 52.46 98.1528 52.1222 98.1528 49.2246L98.1883 37.1007C98.1883 34.2741 99.7857 33.9364 100.975 33.9364H100.993C102.182 33.9364 103.726 34.2741 103.726 37.1185V38.9139L112.139 38.9495V37.4384C112.157 30.6654 107.595 25.9012 101.01 25.8834H100.975" fill="#4E266D"/>
<path d="M114.781 26.5219L114.67 59.9783L123.048 60.0061L123.159 26.5497L114.781 26.5219Z" fill="#4E266D"/>
<path d="M132.657 15.6971L128.61 23.1102L134.61 23.1279L136.509 20.4258L138.355 23.1279L144.372 23.1457L140.414 15.6971H132.657ZM127.226 26.5767L127.12 60.033L145.898 60.0863L145.934 52.0334L135.533 51.9978L135.55 47.1091L143.449 47.1269L143.466 39.8383L135.568 39.8028L135.586 34.683L145.987 34.7185L146.005 26.6122L127.226 26.5767Z" fill="#4E266D"/>
<path d="M148.844 26.6477L148.738 60.104L157.151 60.1218L157.204 45.3847L163.257 60.1396L171.208 60.1751L171.315 26.7188L162.902 26.6833L162.848 41.5271L156.796 26.6655L148.844 26.6477Z" fill="#4E266D"/>
<path d="M185.568 26.15C178.965 26.15 174.386 30.8609 174.368 37.634L174.332 49.189C174.315 56.0154 178.876 60.7619 185.514 60.7796H185.568C192.117 60.7796 196.696 56.0687 196.732 49.2601V47.3224L188.319 47.2869L188.301 49.509C188.301 52.3711 186.845 52.7267 185.568 52.7267H185.55C184.219 52.7267 182.763 52.3889 182.763 49.4912L182.799 37.3673C182.816 34.5585 184.396 34.203 185.568 34.203C185.585 34.203 185.585 34.203 185.603 34.203C186.792 34.203 188.336 34.5408 188.336 37.3851V39.1806L196.75 39.2161V37.7051C196.767 30.932 192.206 26.1678 185.621 26.15H185.568Z" fill="#4E266D"/>
<path d="M199.373 26.8108L199.261 60.2671L207.638 60.2951L207.75 26.8388L199.373 26.8108Z" fill="#4E266D"/>
<path d="M226.621 26.8966L217.622 26.8611L208.801 60.2819L217.232 60.3174L218.528 54.6821L225.379 54.6999L226.639 60.3352L235.052 60.3708L226.621 26.8966ZM223.799 48.5135L220.161 48.4957H218.865L219.131 47.2158L221.048 37.7939L222.149 32.3897L223.142 37.8117L224.864 47.2513L225.095 48.5135H223.799Z" fill="#4E266D"/>
<path d="M66.2045 51.5356C64.0568 51.5356 62.0334 51.2867 60.1165 50.8067C58.1996 50.3268 56.4779 49.5979 54.9515 48.6024C53.4251 47.5891 52.1116 46.3092 51.0467 44.7092C49.9817 43.1271 49.2185 41.2249 48.7393 39.0206C48.686 38.8073 48.7038 38.6295 48.8103 38.4517C48.9168 38.2917 49.0765 38.1673 49.2895 38.1139C49.8042 38.1139 50.106 38.3095 50.1947 38.7006C50.6384 40.7805 51.3662 42.5582 52.3779 44.0159C53.3896 45.4736 54.5788 46.6291 55.9809 47.518C57.3831 48.3891 58.945 49.029 60.6845 49.4379C62.4239 49.829 64.2698 50.0423 66.2222 50.0423C67.5179 50.0423 68.8136 49.9534 70.0915 49.7757C71.3695 49.5979 72.6119 49.2957 73.8188 48.8868C75.0258 48.4602 76.1795 47.9269 77.2622 47.2513C78.3449 46.5758 79.3388 45.7225 80.2085 44.7092C80.3683 44.5315 80.5458 44.4426 80.7943 44.4426C80.9718 44.4426 81.1315 44.5137 81.238 44.6203C81.6285 44.9581 81.664 45.2959 81.3267 45.6692C80.386 46.7891 79.3388 47.7135 78.1674 48.4602C76.9959 49.2068 75.7713 49.8112 74.4578 50.2912C73.1444 50.7534 71.7954 51.0912 70.411 51.2689C69.0266 51.4467 67.6244 51.5356 66.2045 51.5356ZM76.073 37.5806C75.0258 37.5806 74.2448 37.2073 73.7479 36.4607C73.2509 35.7141 73.0024 34.8608 73.0024 33.9008L73.0379 24.7456H71.405C70.9257 24.7456 70.6772 24.479 70.6772 23.9634C70.6772 23.4835 70.9257 23.2346 71.405 23.2346H73.7656C73.9786 23.2346 74.1561 23.3057 74.2981 23.4479C74.4578 23.5901 74.5288 23.7679 74.5288 23.9634L74.4933 33.883C74.4933 34.4341 74.5998 34.9141 74.8128 35.3763C75.0258 35.8207 75.4518 36.0518 76.073 36.0518C76.428 36.0518 76.6942 35.9985 76.8717 35.874C77.0314 35.7496 77.1557 35.6429 77.2089 35.5541C77.4752 35.1096 77.6172 34.5408 77.6172 33.883C77.6349 33.6164 77.6704 33.2608 77.6704 32.8164C77.6704 32.372 77.6704 31.8564 77.6704 31.252C77.6704 30.1321 77.6349 29.0477 77.5462 27.9633C77.4574 26.8967 77.2444 25.9011 76.925 24.9767C76.5877 24.0523 76.0907 23.2168 75.4163 22.4702C74.7418 21.7235 73.8366 21.1191 72.6829 20.6214C70.9612 19.9281 68.6538 19.5725 65.7252 19.5547C62.5304 19.537 59.9745 20.3014 58.0576 21.8124C56.1407 23.3235 54.987 25.7234 54.5788 28.9766C54.5433 29.1543 54.4545 29.3143 54.3125 29.421C54.1528 29.5454 53.993 29.5988 53.8155 29.5988H53.7268C53.2476 29.5454 53.0346 29.261 53.1056 28.781C53.5671 25.1545 54.8982 22.4524 57.0814 20.6925C59.2645 18.9148 62.1576 18.0437 65.743 18.0437C67.7664 18.0437 69.5768 18.2392 71.192 18.577C72.8071 18.9326 74.1738 19.5192 75.3275 20.3547C76.4635 21.1902 77.3687 22.2924 78.0077 23.6968C78.6466 25.0834 79.0371 26.8255 79.1436 28.9055C79.1791 29.1721 79.1791 29.5099 79.1791 29.8832C79.1791 30.2565 79.1791 30.7009 79.1791 31.2165C79.1791 31.8209 79.1791 32.3542 79.1791 32.7986C79.1791 33.243 79.1613 33.6164 79.1258 33.883C79.1258 34.843 78.8774 35.6963 78.4159 36.4251C77.9367 37.2251 77.1557 37.5806 76.073 37.5806Z" fill="#4E266D"/>
<path d="M66.2045 51.5356C64.0568 51.5356 62.0334 51.2867 60.1165 50.8067C58.1996 50.3268 56.4779 49.5979 54.9515 48.6024C53.4251 47.5891 52.1116 46.3092 51.0467 44.7092C49.9817 43.1271 49.2185 41.2249 48.7393 39.0206C48.686 38.8073 48.7038 38.6295 48.8103 38.4517C48.9168 38.2917 49.0765 38.1673 49.2895 38.1139C49.8042 38.1139 50.106 38.3095 50.1947 38.7006C50.6384 40.7805 51.3662 42.5582 52.3779 44.0159C53.3896 45.4736 54.5788 46.6291 55.9809 47.518C57.3831 48.3891 58.945 49.029 60.6845 49.4379C62.4239 49.829 64.2698 50.0423 66.2222 50.0423C67.5179 50.0423 68.8136 49.9534 70.0915 49.7757C71.3695 49.5979 72.6119 49.2957 73.8188 48.8868C75.0258 48.4602 76.1795 47.9269 77.2622 47.2513C78.3449 46.5758 79.3388 45.7225 80.2085 44.7092C80.3683 44.5315 80.5458 44.4426 80.7943 44.4426C80.9718 44.4426 81.1315 44.5137 81.238 44.6203C81.6285 44.9581 81.664 45.2959 81.3267 45.6692C80.386 46.7891 79.3388 47.7135 78.1674 48.4602C76.9959 49.2068 75.7713 49.8112 74.4578 50.2912C73.1444 50.7534 71.7954 51.0912 70.411 51.2689C69.0266 51.4467 67.6244 51.5356 66.2045 51.5356ZM76.073 37.5806C75.0258 37.5806 74.2448 37.2073 73.7479 36.4607C73.2509 35.7141 73.0024 34.8608 73.0024 33.9008L73.0379 24.7456H71.405C70.9257 24.7456 70.6772 24.479 70.6772 23.9634C70.6772 23.4835 70.9257 23.2346 71.405 23.2346H73.7656C73.9786 23.2346 74.1561 23.3057 74.2981 23.4479C74.4578 23.5901 74.5288 23.7679 74.5288 23.9634L74.4933 33.883C74.4933 34.4341 74.5998 34.9141 74.8128 35.3763C75.0258 35.8207 75.4518 36.0518 76.073 36.0518C76.428 36.0518 76.6942 35.9985 76.8717 35.874C77.0314 35.7496 77.1557 35.6429 77.2089 35.5541C77.4752 35.1096 77.6172 34.5408 77.6172 33.883C77.6349 33.6164 77.6704 33.2608 77.6704 32.8164C77.6704 32.372 77.6704 31.8564 77.6704 31.252C77.6704 30.1321 77.6349 29.0477 77.5462 27.9633C77.4574 26.8967 77.2444 25.9011 76.925 24.9767C76.5877 24.0523 76.0907 23.2168 75.4163 22.4702C74.7418 21.7235 73.8366 21.1191 72.6829 20.6214C70.9612 19.9281 68.6538 19.5725 65.7252 19.5547C62.5304 19.537 59.9745 20.3014 58.0576 21.8124C56.1407 23.3235 54.987 25.7234 54.5788 28.9766C54.5433 29.1543 54.4545 29.3143 54.3125 29.421C54.1528 29.5454 53.993 29.5988 53.8155 29.5988H53.7268C53.2476 29.5454 53.0346 29.261 53.1056 28.781C53.5671 25.1545 54.8982 22.4524 57.0814 20.6925C59.2645 18.9148 62.1576 18.0437 65.743 18.0437C67.7664 18.0437 69.5768 18.2392 71.192 18.577C72.8071 18.9326 74.1738 19.5192 75.3275 20.3547C76.4635 21.1902 77.3687 22.2924 78.0077 23.6968C78.6466 25.0834 79.0371 26.8255 79.1436 28.9055C79.1791 29.1721 79.1791 29.5099 79.1791 29.8832C79.1791 30.2565 79.1791 30.7009 79.1791 31.2165C79.1791 31.8209 79.1791 32.3542 79.1791 32.7986C79.1791 33.243 79.1613 33.6164 79.1258 33.883C79.1258 34.843 78.8774 35.6963 78.4159 36.4251C77.9367 37.2251 77.1557 37.5806 76.073 37.5806Z" fill="#4E266D"/>
<path d="M66.2045 51.5356C64.0568 51.5356 62.0334 51.2867 60.1165 50.8067C58.1996 50.3268 56.4779 49.5979 54.9515 48.6024C53.4251 47.5891 52.1116 46.3092 51.0467 44.7092C49.9817 43.1271 49.2185 41.2249 48.7393 39.0206C48.686 38.8073 48.7038 38.6295 48.8103 38.4517C48.9168 38.2917 49.0765 38.1673 49.2895 38.1139C49.8042 38.1139 50.106 38.3095 50.1947 38.7006C50.6384 40.7805 51.3662 42.5582 52.3779 44.0159C53.3896 45.4736 54.5788 46.6291 55.9809 47.518C57.3831 48.3891 58.945 49.029 60.6845 49.4379C62.4239 49.829 64.2698 50.0423 66.2222 50.0423C67.5179 50.0423 68.8136 49.9534 70.0915 49.7757C71.3695 49.5979 72.6119 49.2957 73.8188 48.8868C75.0258 48.4602 76.1795 47.9269 77.2622 47.2513C78.3449 46.5758 79.3388 45.7225 80.2085 44.7092C80.3683 44.5315 80.5458 44.4426 80.7943 44.4426C80.9718 44.4426 81.1315 44.5137 81.238 44.6203C81.6285 44.9581 81.664 45.2959 81.3267 45.6692C80.386 46.7891 79.3388 47.7135 78.1674 48.4602C76.9959 49.2068 75.7713 49.8112 74.4578 50.2912C73.1444 50.7534 71.7954 51.0912 70.411 51.2689C69.0266 51.4467 67.6244 51.5356 66.2045 51.5356ZM76.073 37.5806C75.0258 37.5806 74.2448 37.2073 73.7479 36.4607C73.2509 35.7141 73.0024 34.8608 73.0024 33.9008L73.0379 24.7456H71.405C70.9257 24.7456 70.6772 24.479 70.6772 23.9634C70.6772 23.4835 70.9257 23.2346 71.405 23.2346H73.7656C73.9786 23.2346 74.1561 23.3057 74.2981 23.4479C74.4578 23.5901 74.5288 23.7679 74.5288 23.9634L74.4933 33.883C74.4933 34.4341 74.5998 34.9141 74.8128 35.3763C75.0258 35.8207 75.4518 36.0518 76.073 36.0518C76.428 36.0518 76.6942 35.9985 76.8717 35.874C77.0314 35.7496 77.1557 35.6429 77.2089 35.5541C77.4752 35.1096 77.6172 34.5408 77.6172 33.883C77.6349 33.6164 77.6704 33.2608 77.6704 32.8164C77.6704 32.372 77.6704 31.8564 77.6704 31.252C77.6704 30.1321 77.6349 29.0477 77.5462 27.9633C77.4574 26.8967 77.2444 25.9011 76.925 24.9767C76.5877 24.0523 76.0907 23.2168 75.4163 22.4702C74.7418 21.7235 73.8366 21.1191 72.6829 20.6214C70.9612 19.9281 68.6538 19.5725 65.7252 19.5547C62.5304 19.537 59.9745 20.3014 58.0576 21.8124C56.1407 23.3235 54.987 25.7234 54.5788 28.9766C54.5433 29.1543 54.4545 29.3143 54.3125 29.421C54.1528 29.5454 53.993 29.5988 53.8155 29.5988H53.7268C53.2476 29.5454 53.0346 29.261 53.1056 28.781C53.5671 25.1545 54.8982 22.4524 57.0814 20.6925C59.2645 18.9148 62.1576 18.0437 65.743 18.0437C67.7664 18.0437 69.5768 18.2392 71.192 18.577C72.8071 18.9326 74.1738 19.5192 75.3275 20.3547C76.4635 21.1902 77.3687 22.2924 78.0077 23.6968C78.6466 25.0834 79.0371 26.8255 79.1436 28.9055C79.1791 29.1721 79.1791 29.5099 79.1791 29.8832C79.1791 30.2565 79.1791 30.7009 79.1791 31.2165C79.1791 31.8209 79.1791 32.3542 79.1791 32.7986C79.1791 33.243 79.1613 33.6164 79.1258 33.883C79.1258 34.843 78.8774 35.6963 78.4159 36.4251C77.9367 37.2251 77.1557 37.5806 76.073 37.5806Z" fill="#4E266D"/>
<path d="M69.9672 14.8615H62.1221V10.0973C62.1221 7.9285 63.8792 6.16858 66.0446 6.16858C68.21 6.16858 69.9672 7.9285 69.9672 10.0973V14.8615ZM63.755 14.1505H68.3165V10.0084C68.3165 8.74625 67.2871 7.73296 66.0446 7.73296C64.7844 7.73296 63.7727 8.76402 63.7727 10.0084V14.1505H63.755Z" fill="#4E266D"/>
<path d="M69.9672 14.8615H62.1221V10.0973C62.1221 7.9285 63.8792 6.16858 66.0446 6.16858C68.21 6.16858 69.9672 7.9285 69.9672 10.0973V14.8615ZM63.755 14.1505H68.3165V10.0084C68.3165 8.74625 67.2871 7.73296 66.0446 7.73296C64.7844 7.73296 63.7727 8.76402 63.7727 10.0084V14.1505H63.755Z" fill="#4E266D"/>
<path d="M69.9672 14.8615H62.1221V10.0973C62.1221 7.9285 63.8792 6.16858 66.0446 6.16858C68.21 6.16858 69.9672 7.9285 69.9672 10.0973V14.8615ZM63.755 14.1505H68.3165V10.0084C68.3165 8.74625 67.2871 7.73296 66.0446 7.73296C64.7844 7.73296 63.7727 8.76402 63.7727 10.0084V14.1505H63.755Z" fill="#4E266D"/>
<path d="M62.1221 7.11088C61.9979 7.11088 61.8736 7.07533 61.7494 7.00422L58.6255 5.0843C58.2883 4.87098 58.1995 4.44433 58.3948 4.10657C58.6078 3.7688 59.0337 3.66214 59.371 3.87547L62.4948 5.79538C62.8321 6.00871 62.9386 6.43535 62.7256 6.77312C62.5836 6.98644 62.3706 7.11088 62.1221 7.11088Z" fill="#4E266D"/>
<path d="M62.1221 7.11088C61.9979 7.11088 61.8736 7.07533 61.7494 7.00422L58.6255 5.0843C58.2883 4.87098 58.1995 4.44433 58.3948 4.10657C58.6078 3.7688 59.0337 3.66214 59.371 3.87547L62.4948 5.79538C62.8321 6.00871 62.9386 6.43535 62.7256 6.77312C62.5836 6.98644 62.3706 7.11088 62.1221 7.11088Z" fill="#4E266D"/>
<path d="M62.1221 7.11088C61.9979 7.11088 61.8736 7.07533 61.7494 7.00422L58.6255 5.0843C58.2883 4.87098 58.1995 4.44433 58.3948 4.10657C58.6078 3.7688 59.0337 3.66214 59.371 3.87547L62.4948 5.79538C62.8321 6.00871 62.9386 6.43535 62.7256 6.77312C62.5836 6.98644 62.3706 7.11088 62.1221 7.11088Z" fill="#4E266D"/>
<path d="M69.9672 7.11088C69.7364 7.11088 69.5057 6.98644 69.3637 6.77312C69.1507 6.43535 69.2572 6.00871 69.5944 5.79538L72.7183 3.87547C73.0555 3.66214 73.4815 3.7688 73.6945 4.10657C73.9075 4.44433 73.801 4.87098 73.4638 5.0843L70.3399 7.00422C70.2157 7.07533 70.0914 7.11088 69.9672 7.11088Z" fill="#4E266D"/>
<path d="M69.9672 7.11088C69.7364 7.11088 69.5057 6.98644 69.3637 6.77312C69.1507 6.43535 69.2572 6.00871 69.5944 5.79538L72.7183 3.87547C73.0555 3.66214 73.4815 3.7688 73.6945 4.10657C73.9075 4.44433 73.801 4.87098 73.4638 5.0843L70.3399 7.00422C70.2157 7.07533 70.0914 7.11088 69.9672 7.11088Z" fill="#4E266D"/>
<path d="M69.9672 7.11088C69.7364 7.11088 69.5057 6.98644 69.3637 6.77312C69.1507 6.43535 69.2572 6.00871 69.5944 5.79538L72.7183 3.87547C73.0555 3.66214 73.4815 3.7688 73.6945 4.10657C73.9075 4.44433 73.801 4.87098 73.4638 5.0843L70.3399 7.00422C70.2157 7.07533 70.0914 7.11088 69.9672 7.11088Z" fill="#4E266D"/>
<path d="M66.0269 5.08423C65.6364 5.08423 65.3169 4.76424 65.3169 4.37315L65.3524 0.711081C65.3524 0.319986 65.6719 0 66.0624 0C66.4528 0 66.7723 0.319986 66.7546 0.711081L66.7368 4.37315C66.7368 4.76424 66.4173 5.08423 66.0269 5.08423Z" fill="#4E266D"/>
<path d="M66.0269 5.08423C65.6364 5.08423 65.3169 4.76424 65.3169 4.37315L65.3524 0.711081C65.3524 0.319986 65.6719 0 66.0624 0C66.4528 0 66.7723 0.319986 66.7546 0.711081L66.7368 4.37315C66.7368 4.76424 66.4173 5.08423 66.0269 5.08423Z" fill="#4E266D"/>
<path d="M66.0269 5.08423C65.6364 5.08423 65.3169 4.76424 65.3169 4.37315L65.3524 0.711081C65.3524 0.319986 65.6719 0 66.0624 0C66.4528 0 66.7723 0.319986 66.7546 0.711081L66.7368 4.37315C66.7368 4.76424 66.4173 5.08423 66.0269 5.08423Z" fill="#4E266D"/>
<path d="M82.9951 43.6425C82.9951 44.1047 82.6224 44.4781 82.1609 44.4781C81.6994 44.4781 81.3267 44.1047 81.3267 43.6425C81.3267 43.1803 81.6994 42.807 82.1609 42.807C82.6224 42.807 82.9951 43.1803 82.9951 43.6425Z" fill="#4E266D"/>
<path d="M66.2045 51.5356C64.0568 51.5356 62.0334 51.2867 60.1165 50.8067C58.1996 50.3268 56.4779 49.5979 54.9515 48.6024C53.4251 47.5891 52.1116 46.3092 51.0467 44.7092C49.9817 43.1271 49.2185 41.2249 48.7393 39.0206C48.686 38.8073 48.7038 38.6295 48.8103 38.4517C48.9168 38.2917 49.0765 38.1673 49.2895 38.1139C49.8042 38.1139 50.106 38.3095 50.1947 38.7006C50.6384 40.7805 51.3662 42.5582 52.3779 44.0159C53.3896 45.4736 54.5788 46.6291 55.9809 47.518C57.3831 48.3891 58.945 49.029 60.6845 49.4379C62.4239 49.829 64.2698 50.0423 66.2222 50.0423C67.5179 50.0423 68.8136 49.9534 70.0915 49.7757C71.3695 49.5979 72.6119 49.2957 73.8188 48.8868C75.0258 48.4602 76.1795 47.9269 77.2622 47.2513C78.3449 46.5758 79.3388 45.7225 80.2085 44.7092C80.3683 44.5315 80.5458 44.4426 80.7943 44.4426C80.9718 44.4426 81.1315 44.5137 81.238 44.6203C81.6285 44.9581 81.664 45.2959 81.3267 45.6692C80.386 46.7891 79.3388 47.7135 78.1674 48.4602C76.9959 49.2068 75.7713 49.8112 74.4578 50.2912C73.1444 50.7534 71.7954 51.0912 70.411 51.2689C69.0266 51.4467 67.6244 51.5356 66.2045 51.5356ZM76.073 37.5806C75.0258 37.5806 74.2448 37.2073 73.7479 36.4607C73.2509 35.7141 73.0024 34.8608 73.0024 33.9008L73.0379 24.7456H71.405C70.9257 24.7456 70.6772 24.479 70.6772 23.9634C70.6772 23.4835 70.9257 23.2346 71.405 23.2346H73.7656C73.9786 23.2346 74.1561 23.3057 74.2981 23.4479C74.4578 23.5901 74.5288 23.7679 74.5288 23.9634L74.4933 33.883C74.4933 34.4341 74.5998 34.9141 74.8128 35.3763C75.0258 35.8207 75.4518 36.0518 76.073 36.0518C76.428 36.0518 76.6942 35.9985 76.8717 35.874C77.0314 35.7496 77.1557 35.6429 77.2089 35.5541C77.4752 35.1096 77.6172 34.5408 77.6172 33.883C77.6349 33.6164 77.6704 33.2608 77.6704 32.8164C77.6704 32.372 77.6704 31.8564 77.6704 31.252C77.6704 30.1321 77.6349 29.0477 77.5462 27.9633C77.4574 26.8967 77.2444 25.9011 76.925 24.9767C76.5877 24.0523 76.0907 23.2168 75.4163 22.4702C74.7418 21.7235 73.8366 21.1191 72.6829 20.6214C70.9612 19.9281 68.6538 19.5725 65.7252 19.5547C62.5304 19.537 59.9745 20.3014 58.0576 21.8124C56.1407 23.3235 54.987 25.7234 54.5788 28.9766C54.5433 29.1543 54.4545 29.3143 54.3125 29.421C54.1528 29.5454 53.993 29.5988 53.8155 29.5988H53.7268C53.2476 29.5454 53.0346 29.261 53.1056 28.781C53.5671 25.1545 54.8982 22.4524 57.0814 20.6925C59.2645 18.9148 62.1576 18.0437 65.743 18.0437C67.7664 18.0437 69.5768 18.2392 71.192 18.577C72.8071 18.9326 74.1738 19.5192 75.3275 20.3547C76.4635 21.1902 77.3687 22.2924 78.0077 23.6968C78.6466 25.0834 79.0371 26.8255 79.1436 28.9055C79.1791 29.1721 79.1791 29.5099 79.1791 29.8832C79.1791 30.2565 79.1791 30.7009 79.1791 31.2165C79.1791 31.8209 79.1791 32.3542 79.1791 32.7986C79.1791 33.243 79.1613 33.6164 79.1258 33.883C79.1258 34.843 78.8774 35.6963 78.4159 36.4251C77.9367 37.2251 77.1557 37.5806 76.073 37.5806Z" fill="#4E266D"/>
<path d="M66.2045 51.5356C64.0568 51.5356 62.0334 51.2867 60.1165 50.8067C58.1996 50.3268 56.4779 49.5979 54.9515 48.6024C53.4251 47.5891 52.1116 46.3092 51.0467 44.7092C49.9817 43.1271 49.2185 41.2249 48.7393 39.0206C48.686 38.8073 48.7038 38.6295 48.8103 38.4517C48.9168 38.2917 49.0765 38.1673 49.2895 38.1139C49.8042 38.1139 50.106 38.3095 50.1947 38.7006C50.6384 40.7805 51.3662 42.5582 52.3779 44.0159C53.3896 45.4736 54.5788 46.6291 55.9809 47.518C57.3831 48.3891 58.945 49.029 60.6845 49.4379C62.4239 49.829 64.2698 50.0423 66.2222 50.0423C67.5179 50.0423 68.8136 49.9534 70.0915 49.7757C71.3695 49.5979 72.6119 49.2957 73.8188 48.8868C75.0258 48.4602 76.1795 47.9269 77.2622 47.2513C78.3449 46.5758 79.3388 45.7225 80.2085 44.7092C80.3683 44.5315 80.5458 44.4426 80.7943 44.4426C80.9718 44.4426 81.1315 44.5137 81.238 44.6203C81.6285 44.9581 81.664 45.2959 81.3267 45.6692C80.386 46.7891 79.3388 47.7135 78.1674 48.4602C76.9959 49.2068 75.7713 49.8112 74.4578 50.2912C73.1444 50.7534 71.7954 51.0912 70.411 51.2689C69.0266 51.4467 67.6244 51.5356 66.2045 51.5356ZM76.073 37.5806C75.0258 37.5806 74.2448 37.2073 73.7479 36.4607C73.2509 35.7141 73.0024 34.8608 73.0024 33.9008L73.0379 24.7456H71.405C70.9257 24.7456 70.6772 24.479 70.6772 23.9634C70.6772 23.4835 70.9257 23.2346 71.405 23.2346H73.7656C73.9786 23.2346 74.1561 23.3057 74.2981 23.4479C74.4578 23.5901 74.5288 23.7679 74.5288 23.9634L74.4933 33.883C74.4933 34.4341 74.5998 34.9141 74.8128 35.3763C75.0258 35.8207 75.4518 36.0518 76.073 36.0518C76.428 36.0518 76.6942 35.9985 76.8717 35.874C77.0314 35.7496 77.1557 35.6429 77.2089 35.5541C77.4752 35.1096 77.6172 34.5408 77.6172 33.883C77.6349 33.6164 77.6704 33.2608 77.6704 32.8164C77.6704 32.372 77.6704 31.8564 77.6704 31.252C77.6704 30.1321 77.6349 29.0477 77.5462 27.9633C77.4574 26.8967 77.2444 25.9011 76.925 24.9767C76.5877 24.0523 76.0907 23.2168 75.4163 22.4702C74.7418 21.7235 73.8366 21.1191 72.6829 20.6214C70.9612 19.9281 68.6538 19.5725 65.7252 19.5547C62.5304 19.537 59.9745 20.3014 58.0576 21.8124C56.1407 23.3235 54.987 25.7234 54.5788 28.9766C54.5433 29.1543 54.4545 29.3143 54.3125 29.421C54.1528 29.5454 53.993 29.5988 53.8155 29.5988H53.7268C53.2476 29.5454 53.0346 29.261 53.1056 28.781C53.5671 25.1545 54.8982 22.4524 57.0814 20.6925C59.2645 18.9148 62.1576 18.0437 65.743 18.0437C67.7664 18.0437 69.5768 18.2392 71.192 18.577C72.8071 18.9326 74.1738 19.5192 75.3275 20.3547C76.4635 21.1902 77.3687 22.2924 78.0077 23.6968C78.6466 25.0834 79.0371 26.8255 79.1436 28.9055C79.1791 29.1721 79.1791 29.5099 79.1791 29.8832C79.1791 30.2565 79.1791 30.7009 79.1791 31.2165C79.1791 31.8209 79.1791 32.3542 79.1791 32.7986C79.1791 33.243 79.1613 33.6164 79.1258 33.883C79.1258 34.843 78.8774 35.6963 78.4159 36.4251C77.9367 37.2251 77.1557 37.5806 76.073 37.5806Z" fill="#4E266D"/>
<path d="M69.9672 14.8615H62.1221V10.0973C62.1221 7.9285 63.8792 6.16858 66.0446 6.16858C68.21 6.16858 69.9672 7.9285 69.9672 10.0973V14.8615ZM63.755 14.1505H68.3165V10.0084C68.3165 8.74625 67.2871 7.73296 66.0446 7.73296C64.7844 7.73296 63.7727 8.76402 63.7727 10.0084V14.1505H63.755Z" fill="#4E266D"/>
<path d="M69.9672 14.8615H62.1221V10.0973C62.1221 7.9285 63.8792 6.16858 66.0446 6.16858C68.21 6.16858 69.9672 7.9285 69.9672 10.0973V14.8615ZM63.755 14.1505H68.3165V10.0084C68.3165 8.74625 67.2871 7.73296 66.0446 7.73296C64.7844 7.73296 63.7727 8.76402 63.7727 10.0084V14.1505H63.755Z" fill="#4E266D"/>
<path d="M62.1221 7.11088C61.9979 7.11088 61.8736 7.07533 61.7494 7.00422L58.6255 5.0843C58.2883 4.87098 58.1995 4.44433 58.3948 4.10657C58.6078 3.7688 59.0337 3.66214 59.371 3.87547L62.4948 5.79538C62.8321 6.00871 62.9386 6.43535 62.7256 6.77312C62.5836 6.98644 62.3706 7.11088 62.1221 7.11088Z" fill="#4E266D"/>
<path d="M69.9672 7.11088C69.7364 7.11088 69.5057 6.98644 69.3637 6.77312C69.1507 6.43535 69.2572 6.00871 69.5944 5.79538L72.7183 3.87547C73.0555 3.66214 73.4815 3.7688 73.6945 4.10657C73.9075 4.44433 73.801 4.87098 73.4638 5.0843L70.3399 7.00422C70.2157 7.07533 70.0914 7.11088 69.9672 7.11088Z" fill="#4E266D"/>
<path d="M66.0269 5.08423C65.6364 5.08423 65.3169 4.76424 65.3169 4.37315L65.3524 0.711081C65.3524 0.319986 65.6719 0 66.0624 0C66.4528 0 66.7723 0.319986 66.7546 0.711081L66.7368 4.37315C66.7368 4.76424 66.4173 5.08423 66.0269 5.08423Z" fill="#4E266D"/>
<path d="M82.9951 43.6425C82.9951 44.1047 82.6224 44.4781 82.1609 44.4781C81.6994 44.4781 81.3267 44.1047 81.3267 43.6425C81.3267 43.1803 81.6994 42.807 82.1609 42.807C82.6224 42.807 82.9951 43.1803 82.9951 43.6425Z" fill="#4E266D"/>
<path d="M69.63 30.4875C69.5057 29.8298 69.2928 29.2431 68.9733 28.7454C68.6538 28.2476 68.2278 27.8388 67.6953 27.5365C67.1451 27.2343 66.4529 27.0743 65.6187 27.0743C64.8022 27.0743 64.1278 27.2166 63.5775 27.5188C63.0273 27.821 62.6013 28.2298 62.2818 28.7454C61.9624 29.2609 61.7494 29.8476 61.6251 30.5053C61.5009 31.1631 61.4476 31.8564 61.4476 32.5497C61.4476 33.243 61.5186 33.9185 61.6429 34.5585C61.7849 35.1984 62.0156 35.7851 62.3351 36.2828C62.6723 36.7806 63.0983 37.1895 63.613 37.5095C64.1455 37.8294 64.7845 37.9894 65.5832 37.9894C66.3996 37.9894 67.0741 37.8472 67.6243 37.545C68.1746 37.2428 68.6005 36.8517 68.9378 36.3539C69.275 35.8562 69.5057 35.2873 69.6122 34.6296C69.7365 33.9896 69.7897 33.2963 69.8075 32.5674C69.7897 31.8386 69.7365 31.1453 69.63 30.4875ZM68.2101 34.0429C68.1391 34.5051 68.0326 34.9318 67.8373 35.2873C67.6598 35.6429 67.3758 35.9451 67.0209 36.1762C66.6659 36.4073 66.1689 36.5139 65.5654 36.5139C64.9975 36.5139 64.536 36.3895 64.181 36.1406C63.8438 35.8917 63.5775 35.5895 63.4 35.2162C63.2225 34.8429 63.0983 34.4163 63.0273 33.954C62.9563 33.4918 62.9208 33.0296 62.9208 32.5674C62.9208 31.0919 63.1693 30.0431 63.6485 29.4387C64.039 28.8698 64.6957 28.5854 65.6009 28.5854C66.5061 28.5854 67.1806 28.8698 67.6243 29.4031C68.0681 30.0431 68.2988 31.0919 68.2988 32.5852C68.2988 33.083 68.2633 33.563 68.2101 34.0429Z" fill="#4E266D"/>
<path d="M66.2222 47.0557C61.4832 47.0379 58.0931 45.8469 56.0164 43.4825C53.9398 41.1182 52.9103 37.7228 52.9281 33.2785L48.9877 33.2607C48.7748 33.2607 48.5973 33.1896 48.4375 33.0474C48.2778 32.9052 48.2068 32.7452 48.2068 32.5319C48.2068 31.483 48.2423 30.4697 48.3133 29.492C48.3843 28.532 48.5085 27.5899 48.686 26.6655C48.8635 25.7411 49.1297 24.8344 49.467 23.91C49.8042 22.9856 50.2657 22.0612 50.8337 21.1368C51.6146 19.8035 52.5553 18.6658 53.638 17.7058C54.7207 16.7459 55.9277 15.9637 57.2234 15.3593C58.5191 14.7549 59.8857 14.3104 61.3234 14.0438C62.7611 13.7593 64.2343 13.6171 65.743 13.6349C71.9197 13.6527 76.499 15.1282 79.4631 18.0436C82.4272 20.959 83.9004 25.4744 83.8649 31.5719C83.8649 32.3541 83.8471 33.1363 83.8116 33.9007C83.7761 34.6651 83.6874 35.4118 83.5276 36.1406C83.3679 36.8695 83.1194 37.5628 82.7822 38.2205C82.4272 38.8783 81.9479 39.5005 81.3445 40.0693C79.8358 41.3848 78.0609 42.0426 76.0552 42.0426C75.079 42.0426 74.1206 41.9004 73.1444 41.5982C72.1682 41.3137 71.3162 40.8337 70.5885 40.1582C69.8253 41.1182 68.9556 41.7404 67.9439 42.0248C66.9322 42.3092 65.8317 42.4515 64.6603 42.4515C63.2403 42.4515 62.0334 42.167 61.0217 41.5982C60.01 41.0293 59.1935 40.3004 58.5723 39.376C57.9333 38.4516 57.4719 37.4028 57.1879 36.1939C56.8861 35.0029 56.7441 33.7585 56.7441 32.4963C56.7441 31.2519 56.9039 30.0431 57.1879 28.8343C57.4719 27.6254 57.9333 26.5588 58.5545 25.6166C59.1758 24.6922 59.9745 23.9278 60.9862 23.3589C61.9801 22.7901 63.1871 22.5056 64.607 22.5056C65.6897 22.5056 66.6482 22.7012 67.4469 23.0567C68.2633 23.43 69.0088 24.0345 69.701 24.87C69.8253 25.0122 69.8608 25.2077 69.8253 25.4211C69.7898 25.6344 69.701 25.7944 69.559 25.9188C69.4348 26.0433 69.2928 26.0966 69.1153 26.0966C68.8491 26.0966 68.6538 25.9899 68.5296 25.7766C67.9971 25.1189 67.4114 24.6389 66.8257 24.39C66.2222 24.1233 65.4767 23.9989 64.607 23.9989C63.4001 23.9989 62.3884 24.2478 61.5719 24.7455C60.7554 25.2433 60.0987 25.901 59.6195 26.7188C59.1403 27.5365 58.7853 28.4432 58.5723 29.4565C58.3593 30.4697 58.2528 31.483 58.2528 32.5141C58.2528 33.5629 58.3593 34.6118 58.59 35.6251C58.8208 36.6384 59.1758 37.545 59.6727 38.3272C60.1697 39.1094 60.8264 39.7493 61.6607 40.2293C62.4949 40.7093 63.5066 40.9582 64.7135 40.9582C65.885 40.9582 66.8967 40.816 67.7309 40.5315C68.5651 40.2471 69.3105 39.6071 69.985 38.6116C70.0738 38.4338 70.269 38.3094 70.5707 38.2561C70.7837 38.2561 70.9967 38.3627 71.2097 38.5761C71.5469 39.0027 72.1327 39.4471 73.0201 39.9449C73.8366 40.336 74.866 40.5493 76.144 40.5493C78.0076 40.5493 79.4808 39.9804 80.5635 38.8249C81.6285 37.6694 82.2319 36.1939 82.3739 34.4162C82.4094 33.954 82.4272 33.4918 82.4449 33.0119C82.4627 32.5319 82.4627 32.0519 82.4804 31.5719C82.4982 25.8122 81.1315 21.6168 78.3981 19.0391C75.6647 16.4437 71.4759 15.146 65.8317 15.1282C63.6663 15.1282 61.6607 15.4304 59.8147 16.0348C57.9688 16.657 56.3537 17.5281 54.9692 18.6836C53.5848 19.8391 52.4488 21.2612 51.5791 22.9501C50.7094 24.6389 50.1769 26.5766 49.9462 28.7454C49.893 29.0831 49.8575 29.492 49.8575 29.9898C49.8575 30.4875 49.8397 31.0919 49.8042 31.7852L53.7445 31.803C53.9575 31.803 54.135 31.8741 54.2947 32.0163C54.4367 32.1586 54.5255 32.3363 54.5255 32.5852C54.5255 34.0963 54.561 35.2873 54.6497 36.1584C54.9692 39.3227 56.0874 41.687 58.0043 43.2336C59.9212 44.7802 62.6901 45.5624 66.3464 45.5624C67.7131 45.5624 68.9201 45.5091 70.0028 45.3669C71.0855 45.2424 72.2392 44.8869 73.4461 44.318C73.4993 44.2647 73.6058 44.2292 73.7656 44.2292C74.0673 44.2292 74.2981 44.3536 74.4401 44.6025C74.653 45.0824 74.5466 45.438 74.1206 45.6335C72.8604 46.2557 71.6002 46.6646 70.34 46.8246C68.9733 46.9846 67.6421 47.0557 66.2222 47.0557Z" fill="#4E266D"/>
<path d="M66.2044 50.8955L66.1866 54.7531L56.3536 54.7176C52.0405 54.6998 48.5439 58.2019 48.5262 62.5039V62.6995C48.5084 67.0015 52.005 70.5213 56.3003 70.5391L77.6348 70.6102C81.9301 70.628 85.4444 67.1259 85.4622 62.8239V62.6283C85.4799 58.3085 81.9834 54.8065 77.6881 54.7887L67.855 54.7531L67.8728 50.9133L66.2044 50.8955ZM83.8115 62.6106V62.8061C83.7938 66.2015 81.0427 68.9392 77.6526 68.9392L56.3358 68.8681C52.9457 68.8503 50.2124 66.0949 50.2124 62.6995V62.5039C50.2301 59.1085 52.9812 56.3708 56.3713 56.3708L77.7058 56.4419C81.0782 56.4597 83.8115 59.2329 83.8115 62.6106Z" fill="#4E266D"/>
<path d="M51.4904 62.6106C51.4904 65.6327 53.922 68.1037 56.9393 68.1037C59.1757 68.1215 61.1104 66.7526 61.9624 64.8149C62.7966 66.7526 64.7135 68.1215 66.9676 68.1392C69.2928 68.1392 71.2807 66.6815 72.0794 64.6372C72.8603 66.6993 74.8482 68.1748 77.1734 68.1748C80.1907 68.1926 82.6579 65.7393 82.6579 62.7173C82.6756 59.6952 80.2262 57.2242 77.2089 57.2242C74.8838 57.2242 72.8958 58.6819 72.0971 60.7262C71.3162 58.6641 69.3283 57.1886 67.0031 57.1886C64.7667 57.1886 62.8143 58.5397 61.9801 60.4774C61.1459 58.5397 59.2112 57.1708 56.9748 57.1531C53.9752 57.1353 51.5081 59.5885 51.4904 62.6106ZM77.2266 58.8774C79.321 58.8774 81.025 60.6018 81.025 62.6995C81.025 64.7972 79.3033 66.5038 77.2089 66.5038C75.1145 66.5038 73.4106 64.7794 73.4106 62.6817C73.4106 60.5662 75.1322 58.8774 77.2266 58.8774ZM67.0209 58.8419C69.1153 58.8419 70.8192 60.5662 70.8192 62.6639C70.8192 64.7616 69.0975 66.4682 67.0031 66.4682C64.9087 66.4682 63.2048 64.7438 63.2048 62.6461C63.2048 60.5485 64.9265 58.8419 67.0209 58.8419ZM56.9748 58.8063C59.0692 58.8063 60.7732 60.5307 60.7732 62.6284C60.7732 64.7261 59.0515 66.4326 56.9571 66.4326C54.8627 66.4326 53.1588 64.7083 53.1588 62.6106C53.1765 60.5129 54.8804 58.8063 56.9748 58.8063Z" fill="#4E266D"/>
<path d="M56.957 65.4195C58.5012 65.4195 59.7614 64.1751 59.7614 62.6285C59.7614 61.0819 58.519 59.8375 56.9748 59.8197C55.4306 59.8197 54.1704 61.0641 54.1704 62.6107C54.1704 64.1573 55.4128 65.4195 56.957 65.4195ZM56.9748 61.4907C57.596 61.4907 58.093 62.0063 58.093 62.6285C58.093 63.2507 57.5782 63.7484 56.957 63.7484C56.3358 63.7484 55.8388 63.2329 55.8388 62.6107C55.8388 61.9885 56.3536 61.4907 56.9748 61.4907Z" fill="#4E266D"/>
<path d="M77.2088 65.4905C78.753 65.4905 79.9954 64.2461 80.0132 62.6995C80.0132 61.1529 78.7707 59.8907 77.2266 59.8907C75.6824 59.8907 74.4222 61.1351 74.4222 62.6817C74.4044 64.2106 75.6646 65.4727 77.2088 65.4905ZM77.2088 61.5618C77.83 61.5618 78.327 62.0773 78.327 62.6995C78.327 63.3217 77.8123 63.8195 77.2088 63.8195C76.5876 63.8195 76.0906 63.3217 76.0906 62.6817C76.0906 62.0595 76.5876 61.5618 77.2088 61.5618Z" fill="#4E266D"/>
<path d="M66.9853 65.455C68.5295 65.455 69.7897 64.2106 69.7897 62.664C69.7897 61.1174 68.5473 59.8552 67.0031 59.8552C65.4589 59.8552 64.1987 61.0996 64.1987 62.6462C64.1987 64.1928 65.4589 65.4372 66.9853 65.455ZM67.0031 61.5263C67.6243 61.5263 68.1213 62.0418 68.1213 62.664C68.1213 63.2862 67.6066 63.7839 67.0031 63.7839C66.3819 63.7839 65.8849 63.2684 65.8849 62.6462C65.8849 62.024 66.3819 61.5263 67.0031 61.5263Z" fill="#4E266D"/>
<path d="M49.112 37.1717C48.757 37.0828 48.5085 36.9406 48.3842 36.745C48.26 36.5495 48.2422 36.3362 48.3487 36.0873C48.4375 35.7317 48.7037 35.5362 49.112 35.554C49.2362 35.554 49.3249 35.5717 49.3782 35.6073C49.5912 35.6606 49.7332 35.8028 49.8219 35.9984C49.9107 36.1939 49.9284 36.4073 49.8752 36.6028V36.6561C49.7332 36.9939 49.4669 37.1717 49.112 37.1717Z" fill="#4E266D"/>
<path d="M231.751 67.8193H90.8402C90.3788 67.8193 89.9528 67.5171 89.8818 67.0549C89.8108 66.5038 90.2368 66.0238 90.7692 66.0238H231.698C232.141 66.0238 232.549 66.326 232.62 66.7704C232.709 67.3393 232.283 67.8193 231.751 67.8193Z" fill="#4E266D"/>
<path d="M235.656 66.9304C235.656 67.4993 235.194 67.9793 234.608 67.9793C234.041 67.9793 233.561 67.5171 233.561 66.9304C233.561 66.3616 234.023 65.8816 234.608 65.8816C235.194 65.8816 235.656 66.3438 235.656 66.9304Z" fill="#4E266D"/>
<path d="M231.751 67.8193H90.8402C90.3788 67.8193 89.9528 67.5171 89.8818 67.0549C89.8108 66.5038 90.2368 66.0238 90.7692 66.0238H231.698C232.141 66.0238 232.549 66.326 232.62 66.7704C232.709 67.3393 232.283 67.8193 231.751 67.8193Z" fill="#4E266D"/>
<path d="M235.656 66.9304C235.656 67.4993 235.194 67.9793 234.608 67.9793C234.041 67.9793 233.561 67.5171 233.561 66.9304C233.561 66.3616 234.023 65.8816 234.608 65.8816C235.194 65.8816 235.656 66.3438 235.656 66.9304Z" fill="#4E266D"/>
<path d="M0.337256 28.9765C0.355005 25.99 2.60915 24.479 5.64426 24.4967C8.57287 24.5145 10.9158 26.3278 10.898 30.0787H9.51357C9.53132 27.2166 7.75641 25.8478 5.59101 25.8478C3.42561 25.8478 1.70394 26.8255 1.70394 28.9943C1.68619 34.0608 11.0755 30.7898 11.0577 36.994C11.04 40.0872 8.64386 41.6516 5.55551 41.6516C2.50265 41.6338 0.0532695 39.6783 0.0710187 35.7851H1.4377C1.41996 38.8783 3.26587 40.3183 5.57326 40.3183C7.8629 40.3183 9.67331 39.2517 9.67331 37.0118C9.69106 32.1586 0.319507 35.3763 0.337256 28.9765Z" fill="#4E266D"/>
<path d="M23.4112 40.1228V41.4738L14.1993 41.4383L14.2526 24.8168L23.4644 24.8345V26.2034L15.637 26.1856L15.6193 32.4076L21.228 32.4253L21.2103 33.6697L15.6193 33.6519L15.6015 40.105L23.4112 40.1228Z" fill="#4E266D"/>
<path d="M25.8073 29.0654C25.825 26.0611 28.0792 24.5678 31.1143 24.5856C34.0429 24.5856 36.3858 26.4166 36.368 30.1676H34.9836C35.0013 27.3233 33.2264 25.9367 31.061 25.9367C28.8956 25.9367 27.174 26.9144 27.1562 29.0832C27.1385 34.1496 36.5278 30.8787 36.51 37.0828C36.4923 40.1761 34.0961 41.7404 31.0078 41.7404C27.9372 41.7404 25.5055 39.7672 25.5233 35.874H26.89C26.8722 38.9672 28.7181 40.4072 31.0255 40.4249C33.3152 40.4249 35.1256 39.3583 35.1433 37.1184C35.1433 32.2297 25.7895 35.4651 25.8073 29.0654Z" fill="#4E266D"/>
<path d="M41.036 41.5271H39.6516L39.7049 24.8878H41.107L41.036 41.5271Z" fill="#4E266D"/>
<path d="M5.53772 60.744C2.23638 60.7262 -0.0177672 58.3441 -1.79982e-05 54.9487L0.0177312 49.3845C0.0354803 45.9713 2.28962 43.607 5.59097 43.6247C8.96331 43.6425 11.1465 46.1135 11.1287 49.6156H9.74427C9.72652 47.0201 8.21784 44.9936 5.59097 44.9758C3.26583 44.958 1.41991 46.5757 1.40217 49.3312L1.38442 54.9665C1.38442 57.2952 2.8576 59.3752 5.53772 59.3929C8.28884 59.3929 9.70877 57.2064 9.72652 54.7176H11.111C11.111 58.2552 8.92781 60.744 5.53772 60.744Z" fill="#4E266D"/>
<path d="M13.5603 54.9665L13.5781 49.4734C13.5958 46.0602 15.8499 43.6781 19.1513 43.6959C22.3994 43.7137 24.7068 46.0958 24.689 49.5268L24.6713 55.0199C24.6535 58.433 22.3461 60.7974 19.098 60.7796C15.8144 60.7441 13.5603 58.3797 13.5603 54.9665ZM23.2868 55.0376L23.3046 49.4557C23.3046 46.7358 21.5474 45.0292 19.1513 45.0292C16.8261 45.0292 14.9802 46.6469 14.9625 49.4023L14.9447 55.0199C14.927 57.7397 16.6664 59.4108 19.098 59.4286C21.4232 59.4286 23.2868 57.8286 23.2868 55.0376Z" fill="#4E266D"/>
<path d="M29.2505 47.1624L29.2151 60.6019H27.8129L27.8661 43.9803H29.1973L34.7173 56.2465L40.3615 44.0159H41.675L41.6217 60.6552L40.2373 60.6374L40.2728 47.1802L35.2675 57.9886H34.1671L29.2505 47.1624Z" fill="#4E266D"/>
<path d="M0.337256 28.9765C0.355005 25.99 2.60915 24.479 5.64426 24.4967C8.57287 24.5145 10.9158 26.3278 10.898 30.0787H9.51357C9.53132 27.2166 7.75641 25.8478 5.59101 25.8478C3.42561 25.8478 1.70394 26.8255 1.70394 28.9943C1.68619 34.0608 11.0755 30.7898 11.0577 36.994C11.04 40.0872 8.64386 41.6516 5.55551 41.6516C2.50265 41.6338 0.0532695 39.6783 0.0710187 35.7851H1.4377C1.41996 38.8783 3.26587 40.3183 5.57326 40.3183C7.8629 40.3183 9.67331 39.2517 9.67331 37.0118C9.69106 32.1586 0.319507 35.3763 0.337256 28.9765Z" fill="#4E266D"/>
<path d="M23.4112 40.1228V41.4738L14.1993 41.4383L14.2526 24.8168L23.4644 24.8345V26.2034L15.637 26.1856L15.6193 32.4076L21.228 32.4253L21.2103 33.6697L15.6193 33.6519L15.6015 40.105L23.4112 40.1228Z" fill="#4E266D"/>
<path d="M25.8073 29.0654C25.825 26.0611 28.0792 24.5678 31.1143 24.5856C34.0429 24.5856 36.3858 26.4166 36.368 30.1676H34.9836C35.0013 27.3233 33.2264 25.9367 31.061 25.9367C28.8956 25.9367 27.174 26.9144 27.1562 29.0832C27.1385 34.1496 36.5278 30.8787 36.51 37.0828C36.4923 40.1761 34.0961 41.7404 31.0078 41.7404C27.9372 41.7404 25.5055 39.7672 25.5233 35.874H26.89C26.8722 38.9672 28.7181 40.4072 31.0255 40.4249C33.3152 40.4249 35.1256 39.3583 35.1433 37.1184C35.1433 32.2297 25.7895 35.4651 25.8073 29.0654Z" fill="#4E266D"/>
<path d="M41.036 41.5271H39.6516L39.7049 24.8878H41.107L41.036 41.5271Z" fill="#4E266D"/>
<path d="M5.64428 67.8193H43.166C43.6275 67.8193 44.0535 67.5171 44.1245 67.0549C44.1955 66.5038 43.7695 66.0238 43.237 66.0238H5.69753C5.2538 66.0238 4.84557 66.326 4.77457 66.7704C4.68582 67.3393 5.1118 67.8193 5.64428 67.8193Z" fill="#4E266D"/>
<path d="M1.7395 66.9304C1.7395 67.4993 2.20098 67.9793 2.7867 67.9793C3.35468 67.9793 3.8339 67.5171 3.8339 66.9304C3.8339 66.3616 3.37242 65.8816 2.7867 65.8816C2.20098 65.8816 1.7395 66.3438 1.7395 66.9304Z" fill="#4E266D"/>
<path d="M250.086 29.1543V66.7349C250.086 67.1971 250.387 67.6237 250.849 67.6948C251.399 67.7659 251.878 67.3393 251.878 66.806V29.1898C251.878 28.7454 251.577 28.3365 251.133 28.2654C250.565 28.1765 250.086 28.6032 250.086 29.1543Z" fill="#4E266D"/>
<path d="M250.973 25.2256C250.405 25.2256 249.926 25.6878 249.926 26.2744C249.926 26.8433 250.387 27.3233 250.973 27.3233C251.541 27.3233 252.02 26.8611 252.02 26.2744C252.02 25.6878 251.559 25.2256 250.973 25.2256Z" fill="#4E266D"/>
</g>
<defs>
<clipPath id="clip0">
<rect width="317" height="84.3519" fill="white"/>
</clipPath>
</defs>
</svg>
